<svg width="216" height="146" viewBox="0 0 216 146" fill="none" xmlns="http://www.w3.org/2000/svg">
<path opacity="0.1" d="M68.46 163.08C88.5653 163.08 106.07 155.554 118.525 141.42C130.963 127.307 138.22 106.778 138.22 81H134.22C134.22 106.042 127.177 125.553 115.525 138.775C103.89 151.976 87.5147 159.08 68.46 159.08V163.08ZM138.22 81C138.22 55.2224 130.963 34.6935 118.525 20.5801C106.07 6.44641 88.5653 -1.08001 68.46 -1.08001V2.91999C87.5147 2.91999 103.89 10.0236 115.525 23.2248C127.177 36.4465 134.22 55.9576 134.22 81H138.22ZM68.46 -1.08001C48.2479 -1.08001 30.6884 6.44408 18.2035 20.5785C5.73668 34.6924 -1.52 55.2224 -1.52 81H2.48C2.48 55.9576 9.52332 36.4476 21.2015 23.2265C32.8616 10.0259 49.2921 2.91999 68.46 2.91999V-1.08001ZM-1.52 81C-1.52 106.778 5.73668 127.308 18.2035 141.422C30.6884 155.556 48.2479 163.08 68.46 163.08V159.08C49.2921 159.08 32.8616 151.974 21.2015 138.773C9.52332 125.552 2.48 106.042 2.48 81H-1.52ZM68.46 123.44C62.112 123.44 56.7135 120.774 52.7897 114.31C48.7774 107.7 46.26 97.0217 46.26 81H42.26C42.26 97.3183 44.8026 108.86 49.3703 116.385C54.0265 124.056 60.728 127.44 68.46 127.44V123.44ZM46.26 81C46.26 64.9783 48.7774 54.3002 52.7897 47.6903C56.7135 41.226 62.112 38.56 68.46 38.56V34.56C60.728 34.56 54.0265 37.9439 49.3703 45.6147C44.8026 53.1398 42.26 64.6817 42.26 81H46.26ZM68.46 38.56C74.6864 38.56 80.033 41.2158 83.9349 47.6854C87.923 54.2979 90.44 64.9793 90.44 81H94.44C94.44 64.6807 91.8971 53.1421 87.3601 45.6196C82.737 37.9542 76.0936 34.56 68.46 34.56V38.56ZM90.44 81C90.44 97.0207 87.923 107.702 83.9349 114.315C80.033 120.784 74.6864 123.44 68.46 123.44V127.44C76.0936 127.44 82.737 124.046 87.3601 116.38C91.8971 108.858 94.44 97.3193 94.44 81H90.44ZM143.207 3.99999V1.99999H141.207V3.99999H143.207ZM143.207 37.66H141.207V39.66H143.207V37.66ZM171.807 37.66H173.807V35.66H171.807V37.66ZM171.807 158H169.807V160H171.807V158ZM215.367 158V160H217.367V158H215.367ZM215.367 3.99999H217.367V1.99999H215.367V3.99999ZM141.207 3.99999V37.66H145.207V3.99999H141.207ZM143.207 39.66H171.807V35.66H143.207V39.66ZM169.807 37.66V158H173.807V37.66H169.807ZM171.807 160H215.367V156H171.807V160ZM217.367 158V3.99999H213.367V158H217.367ZM215.367 1.99999H143.207V5.99999H215.367V1.99999Z" fill="black"/>
</svg>
