<svg width="245" height="146" viewBox="0 0 245 146" fill="none" xmlns="http://www.w3.org/2000/svg">
<path opacity="0.1" d="M68.46 163.08C88.5653 163.08 106.07 155.554 118.525 141.42C130.963 127.307 138.22 106.778 138.22 81H134.22C134.22 106.042 127.177 125.553 115.525 138.775C103.89 151.976 87.5147 159.08 68.46 159.08V163.08ZM138.22 81C138.22 55.2224 130.963 34.6935 118.525 20.5801C106.07 6.44641 88.5653 -1.08001 68.46 -1.08001V2.91999C87.5147 2.91999 103.89 10.0236 115.525 23.2248C127.177 36.4465 134.22 55.9576 134.22 81H138.22ZM68.46 -1.08001C48.2479 -1.08001 30.6884 6.44408 18.2035 20.5785C5.73668 34.6924 -1.52 55.2224 -1.52 81H2.48C2.48 55.9576 9.52332 36.4476 21.2015 23.2265C32.8616 10.0259 49.2921 2.91999 68.46 2.91999V-1.08001ZM-1.52 81C-1.52 106.778 5.73668 127.308 18.2035 141.422C30.6884 155.556 48.2479 163.08 68.46 163.08V159.08C49.2921 159.08 32.8616 151.974 21.2015 138.773C9.52332 125.552 2.48 106.042 2.48 81H-1.52ZM68.46 123.44C62.112 123.44 56.7135 120.774 52.7897 114.31C48.7774 107.7 46.26 97.0217 46.26 81H42.26C42.26 97.3183 44.8026 108.86 49.3703 116.385C54.0265 124.056 60.728 127.44 68.46 127.44V123.44ZM46.26 81C46.26 64.9783 48.7774 54.3002 52.7897 47.6903C56.7135 41.226 62.112 38.56 68.46 38.56V34.56C60.728 34.56 54.0265 37.9439 49.3703 45.6147C44.8026 53.1398 42.26 64.6817 42.26 81H46.26ZM68.46 38.56C74.6864 38.56 80.033 41.2158 83.9349 47.6854C87.923 54.2979 90.44 64.9793 90.44 81H94.44C94.44 64.6807 91.8971 53.1421 87.3601 45.6196C82.737 37.9542 76.0936 34.56 68.46 34.56V38.56ZM90.44 81C90.44 97.0207 87.923 107.702 83.9349 114.315C80.033 120.784 74.6864 123.44 68.46 123.44V127.44C76.0936 127.44 82.737 124.046 87.3601 116.38C91.8971 108.858 94.44 97.3193 94.44 81H90.44ZM208.987 123.46L207.629 121.991L203.876 125.46H208.987V123.46ZM238.027 96.62L236.673 95.1481L236.669 95.1512L238.027 96.62ZM140.567 33.04L138.853 32.0081L137.787 33.7794L139.592 34.7866L140.567 33.04ZM172.907 51.08L171.932 52.8266L173.598 53.7555L174.605 52.1366L172.907 51.08ZM206.127 76.82L204.766 75.3544L204.761 75.3592L206.127 76.82ZM148.487 130.72L147.121 129.259L146.487 129.852V130.72H148.487ZM148.487 158H146.487V160H148.487V158ZM268.387 158V160H270.387V158H268.387ZM268.387 123.46H270.387V121.46H268.387V123.46ZM210.344 124.929L239.384 98.0887L236.669 95.1512L207.629 121.991L210.344 124.929ZM239.381 98.0919C250.489 87.8722 257.224 79.2067 261.166 71.0941C265.126 62.9431 266.207 55.4759 266.207 47.78H262.207C262.207 55.0441 261.197 61.8769 257.568 69.3459C253.92 76.8533 247.564 85.1278 236.673 95.1481L239.381 98.0919ZM266.207 47.78C266.207 32.8492 259.806 20.5542 248.792 12.0425C237.825 3.56644 222.399 -1.08001 204.367 -1.08001V2.91999C221.754 2.91999 236.249 7.40354 246.346 15.2075C256.398 22.9758 262.207 34.1108 262.207 47.78H266.207ZM204.367 -1.08001C173.404 -1.08001 150.923 11.9674 138.853 32.0081L142.28 34.0718C153.53 15.3926 174.609 2.91999 204.367 2.91999V-1.08001ZM139.592 34.7866L171.932 52.8266L173.881 49.3334L141.541 31.2934L139.592 34.7866ZM174.605 52.1366C180.371 42.8693 189.822 38.12 200.407 38.12V34.12C188.552 34.12 177.762 39.4907 171.209 50.0234L174.605 52.1366ZM200.407 38.12C206.743 38.12 211.171 39.5498 213.984 41.8702C216.736 44.1408 218.207 47.4838 218.207 51.96H222.207C222.207 46.5361 220.377 41.9592 216.529 38.7848C212.742 35.6602 207.271 34.12 200.407 34.12V38.12ZM218.207 51.96C218.207 54.9206 217.807 57.9551 215.995 61.603C214.16 65.2996 210.822 69.7308 204.766 75.3544L207.488 78.2856C213.751 72.4692 217.454 67.6604 219.578 63.382C221.727 59.0549 222.207 55.3794 222.207 51.96H218.207ZM204.761 75.3592L147.121 129.259L149.853 132.181L207.493 78.2808L204.761 75.3592ZM146.487 130.72V158H150.487V130.72H146.487ZM148.487 160H268.387V156H148.487V160ZM270.387 158V123.46H266.387V158H270.387ZM268.387 121.46H208.987V125.46H268.387V121.46Z" fill="black"/>
</svg>
