<svg width="245" height="146" viewBox="0 0 245 146" fill="none" xmlns="http://www.w3.org/2000/svg">
<path opacity="0.1" d="M68.46 163.08C88.5653 163.08 106.07 155.554 118.525 141.42C130.963 127.307 138.22 106.778 138.22 81H134.22C134.22 106.042 127.177 125.553 115.525 138.775C103.89 151.976 87.5147 159.08 68.46 159.08V163.08ZM138.22 81C138.22 55.2224 130.963 34.6935 118.525 20.5801C106.07 6.44641 88.5653 -1.08001 68.46 -1.08001V2.91999C87.5147 2.91999 103.89 10.0236 115.525 23.2248C127.177 36.4465 134.22 55.9576 134.22 81H138.22ZM68.46 -1.08001C48.2479 -1.08001 30.6884 6.44408 18.2035 20.5785C5.73668 34.6924 -1.52 55.2224 -1.52 81H2.48C2.48 55.9576 9.52332 36.4476 21.2015 23.2265C32.8616 10.0259 49.2921 2.91999 68.46 2.91999V-1.08001ZM-1.52 81C-1.52 106.778 5.73668 127.308 18.2035 141.422C30.6884 155.556 48.2479 163.08 68.46 163.08V159.08C49.2921 159.08 32.8616 151.974 21.2015 138.773C9.52332 125.552 2.48 106.042 2.48 81H-1.52ZM68.46 123.44C62.112 123.44 56.7135 120.774 52.7897 114.31C48.7774 107.7 46.26 97.0217 46.26 81H42.26C42.26 97.3183 44.8026 108.86 49.3703 116.385C54.0265 124.056 60.728 127.44 68.46 127.44V123.44ZM46.26 81C46.26 64.9783 48.7774 54.3002 52.7897 47.6903C56.7135 41.226 62.112 38.56 68.46 38.56V34.56C60.728 34.56 54.0265 37.9439 49.3703 45.6147C44.8026 53.1398 42.26 64.6817 42.26 81H46.26ZM68.46 38.56C74.6864 38.56 80.033 41.2158 83.9349 47.6854C87.923 54.2979 90.44 64.9793 90.44 81H94.44C94.44 64.6807 91.8971 53.1421 87.3601 45.6196C82.737 37.9542 76.0936 34.56 68.46 34.56V38.56ZM90.44 81C90.44 97.0207 87.923 107.702 83.9349 114.315C80.033 120.784 74.6864 123.44 68.46 123.44V127.44C76.0936 127.44 82.737 124.046 87.3601 116.38C91.8971 108.858 94.44 97.3193 94.44 81H90.44ZM227.917 65.6L226.452 64.2384L224.048 66.8247L227.503 67.5566L227.917 65.6ZM259.817 31.28L261.282 32.6416L261.817 32.0659V31.28H259.817ZM259.817 3.99999H261.817V1.99999H259.817V3.99999ZM148.497 3.99999V1.99999H146.497V3.99999H148.497ZM148.497 37.66H146.497V39.66H148.497V37.66ZM209.217 37.66L210.685 39.0188L213.795 35.66H209.217V37.66ZM181.717 67.36L180.25 66.0012L179.717 66.5763V67.36H181.717ZM181.717 94.86H179.717V96.86H181.717V94.86ZM156.417 113.12L157.54 111.465L155.624 110.165L154.616 112.25L156.417 113.12ZM140.577 145.9L138.776 145.03L137.996 146.645L139.517 147.596L140.577 145.9ZM229.382 66.9616L261.282 32.6416L258.352 29.9184L226.452 64.2384L229.382 66.9616ZM261.817 31.28V3.99999H257.817V31.28H261.817ZM259.817 1.99999H148.497V5.99999H259.817V1.99999ZM146.497 3.99999V37.66H150.497V3.99999H146.497ZM148.497 39.66H209.217V35.66H148.497V39.66ZM207.75 36.3012L180.25 66.0012L183.185 68.7188L210.685 39.0188L207.75 36.3012ZM179.717 67.36V94.86H183.717V67.36H179.717ZM181.717 96.86H199.977V92.86H181.717V96.86ZM199.977 96.86C208.171 96.86 213.58 98.2727 216.891 100.528C220.066 102.691 221.517 105.768 221.517 109.82H225.517C225.517 104.632 223.558 100.229 219.143 97.222C214.864 94.3073 208.503 92.86 199.977 92.86V96.86ZM221.517 109.82C221.517 114.253 219.492 117.657 215.758 120.042C211.932 122.486 206.25 123.88 199.097 123.88V127.88C206.684 127.88 213.212 126.414 217.911 123.413C222.702 120.353 225.517 115.727 225.517 109.82H221.517ZM199.097 123.88C184.941 123.88 169.5 119.58 157.54 111.465L155.294 114.775C167.974 123.38 184.213 127.88 199.097 127.88V123.88ZM154.616 112.25L138.776 145.03L142.378 146.77L158.218 113.99L154.616 112.25ZM139.517 147.596C155.755 157.745 178.809 163.08 200.417 163.08V159.08C179.345 159.08 157.079 153.855 141.637 144.204L139.517 147.596ZM200.417 163.08C223.981 163.08 241.264 156.711 252.687 146.777C264.122 136.832 269.517 123.454 269.517 109.82H265.517C265.517 122.366 260.572 134.618 250.062 143.758C239.54 152.909 223.273 159.08 200.417 159.08V163.08ZM269.517 109.82C269.517 98.3888 265.965 88.2264 258.958 80.2066C251.962 72.1985 241.643 66.4636 228.332 63.6434L227.503 67.5566C240.151 70.2364 249.632 75.6115 255.946 82.8383C262.249 90.0536 265.517 99.2512 265.517 109.82H269.517Z" fill="black"/>
</svg>
