<svg width="64" height="64" viewBox="0 0 64 64" fill="none" xmlns="http://www.w3.org/2000/svg">
<path d="M47.8093 23.6501C47.8093 10.6084 37.2009 0 24.1609 0C11.1209 0 0.512512 10.6084 0.512512 23.6501C0.512512 36.6917 11.1192 47.2967 24.1592 47.2967C37.2009 47.2967 47.8093 36.69 47.8093 23.6501ZM24.1609 41.3599C14.3944 41.3599 6.45107 33.4132 6.45107 23.6501C6.45107 13.8835 14.3977 5.93688 24.1609 5.93688C33.9274 5.93688 41.8724 13.8835 41.8724 23.6501C41.8724 33.4166 33.9257 41.3599 24.1609 41.3599ZM63.4875 58.7723L58.2597 64L40.0895 45.8331L45.3172 40.6054L63.4875 58.7723Z" fill="white"/>
</svg>
