<svg width="15" height="15" viewBox="0 0 15 15" fill="none" xmlns="http://www.w3.org/2000/svg">
<path fill-rule="evenodd" clip-rule="evenodd" d="M15 7.5C15 11.6422 11.6421 15 7.5 15C3.35786 15 0 11.6422 0 7.5C0 3.35785 3.35786 0 7.5 0C11.6421 0 15 3.35785 15 7.5ZM12.0198 4.95349C11.8619 4.79565 11.625 4.79565 11.4671 4.95349L6.43426 10.0062L4.32241 7.89429C4.16452 7.73639 3.90794 7.73639 3.76978 7.89429C3.61189 8.05219 3.61189 8.30878 3.76978 8.44696L6.15794 10.8351C6.23689 10.9141 6.33557 10.9535 6.43426 10.9535C6.53294 10.9535 6.63162 10.9141 6.71057 10.8351L12.0198 5.50616C12.1777 5.34827 12.1777 5.11139 12.0198 4.95349Z" fill="#009F9A"/>
</svg>
