<svg width="20" height="21" viewBox="0 0 20 21" fill="none" xmlns="http://www.w3.org/2000/svg">
<path d="M19.4296 14.494L15.0546 12.619C14.8677 12.5393 14.6599 12.5226 14.4627 12.5712C14.2654 12.6198 14.0893 12.7312 13.9608 12.8885L12.0233 15.2558C8.98248 13.8221 6.53535 11.3749 5.10165 8.33416L7.46888 6.39663C7.62657 6.26837 7.73818 6.09223 7.78681 5.89488C7.83545 5.69752 7.81846 5.48969 7.73842 5.30286L5.86338 0.927781C5.77554 0.726374 5.62016 0.561933 5.42406 0.462811C5.22796 0.36369 5.00341 0.336101 4.78915 0.384802L0.726575 1.32232C0.519997 1.37002 0.335687 1.48634 0.203728 1.65228C0.0717689 1.81822 -4.75872e-05 2.02399 2.36575e-08 2.23601C2.36575e-08 12.2557 8.12123 20.3613 18.1253 20.3613C18.3374 20.3615 18.5433 20.2897 18.7093 20.1577C18.8753 20.0257 18.9917 19.8414 19.0394 19.6347L19.9769 15.5722C20.0253 15.3569 19.9971 15.1314 19.8972 14.9346C19.7973 14.7379 19.632 14.5821 19.4296 14.494Z" fill="#939DAA"/>
</svg>
