<svg width="20" height="16" viewBox="0 0 20 16" fill="none" xmlns="http://www.w3.org/2000/svg">
<path d="M19.6211 5.81445C19.7734 5.69336 20 5.80664 20 5.99805V13.9863C20 15.0215 19.1602 15.8613 18.125 15.8613H1.875C0.839844 15.8613 0 15.0215 0 13.9863V6.00195C0 5.80664 0.222656 5.69727 0.378906 5.81836C1.25391 6.49805 2.41406 7.36133 6.39844 10.2559C7.22266 10.8574 8.61328 12.123 10 12.1152C11.3945 12.127 12.8125 10.834 13.6055 10.2559C17.5898 7.36133 18.7461 6.49414 19.6211 5.81445ZM10 10.8613C10.9062 10.877 12.2109 9.7207 12.8672 9.24414C18.0508 5.48242 18.4453 5.1543 19.6406 4.2168C19.8672 4.04102 20 3.76758 20 3.47852V2.73633C20 1.70117 19.1602 0.861328 18.125 0.861328H1.875C0.839844 0.861328 0 1.70117 0 2.73633V3.47852C0 3.76758 0.132812 4.03711 0.359375 4.2168C1.55469 5.15039 1.94922 5.48242 7.13281 9.24414C7.78906 9.7207 9.09375 10.877 10 10.8613Z" fill="#939DAA"/>
</svg>
