<svg width="18" height="21" viewBox="0 0 18 21" fill="none" xmlns="http://www.w3.org/2000/svg">
<path d="M8.75 10.3613C11.5117 10.3613 13.75 8.12305 13.75 5.36133C13.75 2.59961 11.5117 0.361328 8.75 0.361328C5.98828 0.361328 3.75 2.59961 3.75 5.36133C3.75 8.12305 5.98828 10.3613 8.75 10.3613ZM12.4922 11.6348L10.625 19.1113L9.375 13.7988L10.625 11.6113H6.875L8.125 13.7988L6.875 19.1113L5.00781 11.6348C2.22266 11.7676 0 14.0449 0 16.8613V18.4863C0 19.5215 0.839844 20.3613 1.875 20.3613H15.625C16.6602 20.3613 17.5 19.5215 17.5 18.4863V16.8613C17.5 14.0449 15.2773 11.7676 12.4922 11.6348Z" fill="#939DAA"/>
</svg>
