<svg width="61" height="61" viewBox="0 0 61 61" fill="none" xmlns="http://www.w3.org/2000/svg">
<path d="M44.3742 38.886C43.0992 38.158 41.7772 37.928 40.6532 38.24C39.8092 38.474 39.1212 39.008 38.6582 39.786C37.6372 41.007 36.3712 42.432 36.0662 42.653C33.6952 44.257 31.8142 44.067 29.7712 42.024L18.2852 30.538C16.2402 28.493 16.0522 26.61 17.6542 24.246C17.8782 23.936 19.3032 22.671 20.5232 21.651C21.3012 21.187 21.8352 20.5 22.0692 19.655C22.3802 18.532 22.1502 17.211 21.4162 15.924C21.2432 15.628 17.1272 8.65402 13.3312 6.64702C11.4022 5.62802 9.0762 5.97702 7.5352 7.51902L4.9982 10.056C-2.4028 17.458 -1.0328 26.652 8.9602 36.644L23.6652 51.35C28.2042 55.89 32.6022 58.676 36.7332 59.631C37.8292 59.884 38.9032 60.011 39.9572 60.011C43.6742 60.011 47.1262 58.438 50.2532 55.311L52.7902 52.774C54.3312 51.233 54.6822 48.904 53.6622 46.978C51.6542 43.183 44.6812 39.065 44.3742 38.886ZM51.3762 51.359L48.8392 53.896C42.2712 60.464 34.2762 59.133 25.0792 49.935L10.3742 35.229C1.1772 26.033 -0.155799 18.039 6.4122 11.469L8.9492 8.93202C9.5152 8.36602 10.2622 8.07002 11.0192 8.07002C11.4862 8.07002 11.9582 8.18202 12.3952 8.41402C15.6892 10.157 19.6512 16.868 19.6842 16.925C20.1332 17.712 20.3042 18.533 20.1412 19.121C20.0412 19.481 19.8182 19.755 19.4572 19.957L19.3072 20.061C18.4542 20.773 16.4242 22.495 15.9992 23.122C15.3872 24.026 14.9812 24.914 14.7682 25.787C14.0572 24.369 13.4832 22.727 13.2942 20.906C13.2362 20.357 12.7472 19.966 12.1952 20.014C11.6462 20.072 11.2472 20.563 11.3032 21.113C12.0252 28.066 17.4332 32.592 17.6622 32.781C17.6872 32.802 17.7172 32.809 17.7432 32.827L28.3552 43.439C28.4002 43.484 28.4462 43.523 28.4912 43.566C28.5262 43.618 28.5492 43.675 28.5952 43.721C28.7842 43.908 33.2992 48.288 40.1942 49.004C40.2292 49.007 40.2642 49.009 40.2982 49.009C40.8042 49.009 41.2382 48.626 41.2922 48.113C41.3492 47.563 40.9492 47.072 40.4002 47.014C38.2852 46.795 36.4122 46.175 34.8512 45.456C35.6172 45.226 36.3962 44.844 37.1852 44.309C37.8122 43.883 39.5342 41.855 40.2452 41.002L40.3492 40.851C40.5512 40.492 40.8252 40.268 41.1852 40.167C41.7702 40.008 42.5932 40.174 43.3702 40.617C45.2492 41.719 50.4432 45.177 51.8912 47.913C52.5002 49.059 52.2922 50.443 51.3762 51.359Z" fill="#73C7C4"/>
<path d="M27.6652 0.988281C27.1122 0.988281 26.6652 1.43528 26.6652 1.98828C26.6652 2.54128 27.1122 2.98828 27.6652 2.98828C44.5572 2.98828 58.3002 16.7313 58.3002 33.6233C58.3002 34.1763 58.7472 34.6233 59.3002 34.6233C59.8532 34.6233 60.3002 34.1763 60.3002 33.6233C60.3002 15.6283 45.6602 0.988281 27.6652 0.988281Z" fill="#73C7C4"/>
<path d="M27.6652 10.0186C40.6812 10.0186 51.2692 20.6076 51.2692 33.6226C51.2692 34.1756 51.7162 34.6226 52.2692 34.6226C52.8222 34.6226 53.2692 34.1756 53.2692 33.6226C53.2692 19.5046 41.7832 8.01855 27.6652 8.01855C27.1122 8.01855 26.6652 8.46555 26.6652 9.01855C26.6652 9.57155 27.1122 10.0186 27.6652 10.0186Z" fill="#73C7C4"/>
<path d="M27.6652 17.0479C36.8052 17.0479 44.2402 24.4839 44.2402 33.6229C44.2402 34.1759 44.6872 34.6229 45.2402 34.6229C45.7932 34.6229 46.2402 34.1759 46.2402 33.6229C46.2402 23.3809 37.9072 15.0479 27.6652 15.0479C27.1122 15.0479 26.6652 15.4949 26.6652 16.0479C26.6652 16.6009 27.1122 17.0479 27.6652 17.0479Z" fill="#73C7C4"/>
</svg>
