<svg width="42" height="41" viewBox="0 0 42 41" fill="none" xmlns="http://www.w3.org/2000/svg">
<path d="M21.0004 0.336914C9.82627 0.336914 0.735841 9.42734 0.735841 20.6014C0.735841 24.7257 1.9583 28.6615 4.27957 32.0395L0.883948 38.8305C0.628738 39.3401 0.706789 39.953 1.08121 40.3837C1.35305 40.6959 1.74243 40.866 2.14227 40.866C2.29314 40.866 2.44481 40.8423 2.59213 40.7924L10.7065 38.0519C13.8188 39.8952 17.3634 40.866 21.0002 40.866C32.1743 40.866 41.2647 31.7755 41.2647 20.6014C41.2647 9.42726 32.1744 0.336914 21.0004 0.336914ZM11.5714 15.2135C11.5714 12.9852 13.3841 11.1725 15.6124 11.1725C17.8407 11.1725 19.6534 12.9852 19.6534 15.2135C19.6534 17.4418 17.8408 19.2545 15.6124 19.2545C13.3841 19.2544 11.5714 17.4418 11.5714 15.2135ZM16.2377 27.2698C15.9746 27.5329 15.6299 27.6645 15.2853 27.6645C14.9408 27.6645 14.596 27.5329 14.333 27.2698C13.807 26.7436 13.807 25.8912 14.333 25.3651L25.7623 13.9349C26.2885 13.4087 27.141 13.4087 27.6671 13.9349C28.1932 14.461 28.1932 15.3136 27.6671 15.8396L16.2377 27.2698ZM26.3883 30.0304C24.1601 30.0304 22.3473 28.2177 22.3473 25.9894C22.3473 23.761 24.16 21.9484 26.3883 21.9484C28.6166 21.9484 30.4293 23.761 30.4293 25.9894C30.4293 28.2177 28.6166 30.0304 26.3883 30.0304Z" fill="#009F9A"/>
</svg>
