<svg width="48" height="41" viewBox="0 0 48 41" fill="none" xmlns="http://www.w3.org/2000/svg">
<path d="M24.0009 30.9928C23.7331 30.9928 23.4699 30.9229 23.2374 30.7899L9.77054 23.093C9.65352 23.0255 9.52077 22.9899 9.38565 22.99C9.25053 22.99 9.11781 23.0257 9.00084 23.0933C8.88388 23.161 8.78679 23.2582 8.71936 23.3753C8.65193 23.4924 8.61653 23.6252 8.61673 23.7603V30.9928C8.6165 31.2674 8.68976 31.537 8.82891 31.7737C8.96806 32.0104 9.16803 32.2056 9.40805 32.3389L23.2538 40.031C23.4823 40.158 23.7395 40.2246 24.0009 40.2246C24.2623 40.2246 24.5194 40.158 24.748 40.031L38.5937 32.3389C38.8337 32.2056 39.0337 32.0104 39.1729 31.7737C39.312 31.537 39.3853 31.2674 39.385 30.9928V23.7603C39.3852 23.6252 39.3498 23.4924 39.2824 23.3753C39.215 23.2582 39.1179 23.161 39.0009 23.0933C38.884 23.0257 38.7512 22.99 38.6161 22.99C38.481 22.9899 38.3482 23.0255 38.2312 23.093L24.7643 30.7899C24.5318 30.9229 24.2687 30.9928 24.0009 30.9928Z" fill="#009F9A"/>
<path d="M47.0694 13.926C47.0694 13.926 47.0694 13.9183 47.0694 13.9155C47.0446 13.6716 46.9618 13.4372 46.828 13.2318C46.6942 13.0265 46.5132 12.856 46.3002 12.7347L24.7624 0.427404C24.5299 0.294512 24.2668 0.224609 23.999 0.224609C23.7312 0.224609 23.468 0.294512 23.2355 0.427404L1.69771 12.7347C1.46232 12.8693 1.26668 13.0637 1.13061 13.2983C0.994546 13.5328 0.922882 13.7991 0.922882 14.0703C0.922882 14.3414 0.994546 14.6077 1.13061 14.8423C1.26668 15.0768 1.46232 15.2712 1.69771 15.4058L23.2355 27.7131C23.468 27.846 23.7312 27.9159 23.999 27.9159C24.2668 27.9159 24.5299 27.846 24.7624 27.7131L43.7118 16.8856C43.7411 16.8687 43.7744 16.8598 43.8082 16.8598C43.842 16.8598 43.8752 16.8688 43.9045 16.8858C43.9337 16.9027 43.958 16.9271 43.9748 16.9564C43.9916 16.9858 44.0004 17.019 44.0003 17.0529V30.9496C44.0003 31.7774 44.6368 32.488 45.4647 32.5293C45.6727 32.5394 45.8806 32.507 46.0757 32.4343C46.2709 32.3617 46.4492 32.2501 46.6 32.1064C46.7507 31.9628 46.8708 31.79 46.9528 31.5986C47.0348 31.4072 47.0771 31.2011 47.0771 30.9928V14.0703C47.077 14.0221 47.0744 13.974 47.0694 13.926Z" fill="#009F9A"/>
</svg>
