<svg width="50" height="41" viewBox="0 0 50 41" fill="none" xmlns="http://www.w3.org/2000/svg">
<path d="M45 0.224609H5.00815V7.40012H45V0.224609Z" fill="#009F9A"/>
<path d="M5 9.40015V40.2246H45V9.40015H5ZM14.5265 35.2695H9.92245V29.9716H14.5265V35.2695ZM14.5265 26.9512H9.92245V21.6532H14.5265V26.9512ZM14.5265 18.6655H9.92245V13.3348H14.5265V18.6655ZM40.0776 32.9838H20.0776C19.5061 32.9838 19.0653 32.543 19.0653 31.9716C19.0653 31.4001 19.5061 30.9593 20.0776 30.9593H40.0694C40.6408 30.9593 41.0816 31.4001 41.0816 31.9716C41.0816 32.543 40.649 32.9838 40.0776 32.9838ZM40.0776 25.3348H20.0776C19.5061 25.3348 19.0653 24.894 19.0653 24.3226C19.0653 23.7512 19.5061 23.3103 20.0776 23.3103H40.0694C40.6408 23.3103 41.0816 23.7512 41.0816 24.3226C41.0816 24.894 40.649 25.3348 40.0776 25.3348ZM40.0776 17.6532H20.0776C19.5061 17.6532 19.0653 17.2124 19.0653 16.641C19.0653 16.0695 19.5061 15.6287 20.0776 15.6287H40.0694C40.6408 15.6287 41.0816 16.0695 41.0816 16.641C41.0816 17.2124 40.649 17.6532 40.0776 17.6532Z" fill="#009F9A"/>
</svg>
