<svg width="28" height="27" viewBox="0 0 28 27" fill="none" xmlns="http://www.w3.org/2000/svg">
<path d="M14 0C6.53947 0 0.5 6.03947 0.5 13.5C0.5 20.9605 6.53947 27 14 27C21.4605 27 27.5 20.9605 27.5 13.5C27.5 6.03947 21.4605 0 14 0ZM14 25.5789C7.32105 25.5789 1.92105 20.1789 1.92105 13.5C1.92105 6.82105 7.32105 1.42105 14 1.42105C20.6789 1.42105 26.0789 6.82105 26.0789 13.5C26.0789 20.1789 20.6789 25.5789 14 25.5789ZM22.1355 8.9171C21.8513 8.63289 21.425 8.63289 21.1408 8.9171L12.0816 18.0118L8.28026 14.2105C7.99605 13.9263 7.53421 13.9263 7.28553 14.2105C7.00132 14.4947 7.00132 14.9566 7.28553 15.2053L11.5842 19.5039C11.7263 19.6461 11.9039 19.7171 12.0816 19.7171C12.2592 19.7171 12.4368 19.6461 12.5789 19.5039L22.1355 9.91184C22.4197 9.62763 22.4197 9.20131 22.1355 8.9171Z" fill="#009F9A"/>
</svg>
