<svg width="62" height="57" viewBox="0 0 62 57" fill="none" xmlns="http://www.w3.org/2000/svg">
<path opacity="0.2" d="M25.6164 0.554199C12.65 10.6915 0.862488 22.0076 0.862488 40.6319C0.862488 51.7122 6.99202 56.1915 14.0645 56.1915C19.9583 56.1915 25.6164 50.7692 25.6164 44.1682C25.6164 37.5671 20.6656 32.8521 17.1293 32.8521C13.5931 32.8521 12.1785 30.2588 12.1785 26.7226C12.1785 21.3003 14.0645 15.878 28.4454 3.3832L25.6164 0.554199ZM58.6215 0.554199C45.4194 10.6915 33.6319 22.0076 33.6319 40.6319C33.6319 51.7122 39.7614 56.1915 46.834 56.1915C52.7277 56.1915 58.6215 50.7692 58.6215 44.1682C58.6215 37.5671 53.435 32.8521 49.8987 32.8521C46.3625 32.8521 44.948 30.2588 44.948 26.7226C44.948 21.3003 46.834 15.878 61.2148 3.3832L58.6215 0.554199Z" fill="#009F9A"/>
</svg>
