<svg width="27" height="27" viewBox="0 0 27 27" fill="none" xmlns="http://www.w3.org/2000/svg">
<path d="M13.5 0C6.03947 0 0 6.03947 0 13.5C0 20.9605 6.03947 27 13.5 27C20.9605 27 27 20.9605 27 13.5C27 6.03947 20.9605 0 13.5 0ZM13.5 25.5789C6.82105 25.5789 1.42105 20.1789 1.42105 13.5C1.42105 6.82105 6.82105 1.42105 13.5 1.42105C20.1789 1.42105 25.5789 6.82105 25.5789 13.5C25.5789 20.1789 20.1789 25.5789 13.5 25.5789ZM21.6355 8.9171C21.3513 8.63289 20.925 8.63289 20.6408 8.9171L11.5816 18.0118L7.78026 14.2105C7.49605 13.9263 7.03421 13.9263 6.78553 14.2105C6.50132 14.4947 6.50132 14.9566 6.78553 15.2053L11.0842 19.5039C11.2263 19.6461 11.4039 19.7171 11.5816 19.7171C11.7592 19.7171 11.9368 19.6461 12.0789 19.5039L21.6355 9.91184C21.9197 9.62763 21.9197 9.20131 21.6355 8.9171Z" fill="#009F9A"/>
</svg>
