<svg width="29" height="27" viewBox="0 0 29 27" fill="none" xmlns="http://www.w3.org/2000/svg">
<path d="M28.6517 19.8284C28.6414 17.9105 28.6414 15.9925 28.5898 14.0746C28.5692 13.2496 28.5074 12.4144 28.3217 11.6101C28.0227 10.3108 27.3215 9.24874 25.9913 8.81565C24.5271 8.35163 23.2175 8.78472 22.0317 9.70245C21.9698 9.7437 21.9182 9.84681 21.9182 9.91899C21.9079 10.8264 21.9182 11.7235 21.9182 12.6206C22.3513 12.5381 22.7432 12.4247 23.135 12.3835C23.6609 12.3422 24.1559 12.4453 24.4549 12.9403C24.7539 13.4352 24.9499 13.9818 24.9499 14.5592C24.9705 16.7659 24.9705 18.9726 24.9499 21.1793C24.9395 22.1485 24.424 22.7982 23.5269 23.1178C23.4547 23.1488 23.3516 23.2519 23.3412 23.3241C23.3412 24.4171 23.3516 25.4998 23.3516 26.5928C23.3516 26.7784 23.4237 26.8506 23.63 26.8609C25.5582 26.8816 27.4865 25.5514 28.1568 23.7159C28.6002 22.4579 28.662 21.138 28.6517 19.8284ZM24.7746 4.19606C25.7129 4.09295 26.6616 3.97952 27.5999 3.88672C27.7546 3.86609 27.8371 3.83516 27.8371 3.65986C27.8371 2.56683 27.8371 1.46349 27.8371 0.308594C26.3007 0.483891 24.8261 0.648876 23.3516 0.824173C21.6605 1.02009 20.0106 1.23664 18.3195 1.41193C18.2679 2.11312 18.2061 2.83493 18.1648 3.54643C18.1339 3.98983 18.1236 4.44354 18.0926 4.90756C19.031 4.80445 19.9384 4.71164 20.8355 4.61884C22.1451 4.48479 23.4547 4.34043 24.7746 4.19606ZM21.0211 15.4357C21.0624 13.5487 21.1139 11.672 21.1655 9.78494C21.1964 8.71254 21.2377 7.62982 21.2686 6.55742C21.2789 6.23776 21.2686 5.9181 21.2686 5.58813C21.1139 5.58813 21.0108 5.58813 20.8974 5.58813C20.0622 5.62937 19.2166 5.69124 18.3814 5.71187C18.0823 5.72218 18.0205 5.83561 18.0102 6.0934C17.9998 6.68116 17.9689 7.27923 17.9483 7.86699C17.8658 10.1974 17.773 12.5381 17.6905 14.8686C17.6802 15.1779 17.6905 15.4873 17.6905 15.8585C18.7629 15.8275 19.7837 15.7863 20.8046 15.7554C21.0315 15.745 21.0211 15.6007 21.0211 15.4357ZM22.3307 23.0663C21.5264 22.9735 21.1139 22.2001 21.083 21.4474C21.0521 20.5296 21.0315 19.6119 21.0108 18.7045C21.0108 18.4673 20.949 18.3848 20.6912 18.3848C19.7941 18.4157 18.897 18.4364 17.9998 18.4364C17.7627 18.4364 17.7111 18.5395 17.7214 18.7457C17.7421 19.3232 17.7317 19.9109 17.7421 20.4884C17.773 21.3855 17.7421 22.2826 17.8761 23.1591C18.0514 24.283 18.5979 25.273 19.5569 25.9329C20.4024 26.5103 21.4027 26.7372 22.4854 26.8712C22.4854 25.6339 22.4854 24.4377 22.4751 23.2416C22.506 23.19 22.4029 23.0766 22.3307 23.0663ZM5.22378 20.9833C5.2341 20.6224 5.08973 20.509 4.72883 20.4987C3.42957 20.4368 3.04804 20.0347 3.0171 18.7251C2.99648 17.7352 3.0171 16.7453 2.99648 15.745C2.98617 15.3223 2.94492 14.8995 2.91399 14.4767H0.0267439C0.0267439 16.0131 -0.0454373 17.498 0.047367 18.9726C0.243287 21.9939 1.8519 23.6953 4.68758 24.0356C5.08973 24.0871 5.2341 23.9737 5.22378 23.5715C5.21347 22.7054 5.21347 21.8495 5.22378 20.9833ZM0.0164323 13.3321H2.9243C2.9243 12.466 2.91399 11.641 2.9243 10.8264C2.95524 9.14563 3.42957 8.61973 5.08973 8.42381C5.12067 8.42381 5.1516 8.38257 5.21347 8.34132V5.58813C3.24396 5.36127 1.07853 6.75334 0.367026 8.67129C-0.200111 10.1974 0.098925 11.7648 0.0164323 13.3321ZM5.83217 26.9434H9.12157V2.29873C7.98729 2.42247 6.91489 2.5359 5.83217 2.64932V26.9434ZM11.9676 9.79526C11.9779 10.414 11.9779 11.0326 11.9779 11.6513C11.9779 12.0741 11.9779 12.4866 11.9779 12.899H15.2879C15.2879 11.476 15.3498 10.1252 15.2673 8.78472C15.1951 7.58858 14.6176 6.60897 13.5865 5.93872C12.5244 5.25816 11.3386 5.15504 10.1218 5.25816C10.0084 5.26847 9.82275 5.44377 9.82275 5.55719C9.80213 6.43368 9.81244 7.31016 9.81244 8.20727C10.0702 8.21758 10.2558 8.22789 10.4311 8.23821C11.5448 8.27945 11.9469 8.69192 11.9676 9.79526ZM15.3188 14.0746C14.3599 14.0746 13.4627 14.0952 12.5656 14.0643C12.1532 14.0539 12.0088 14.1983 12.0191 14.6211C12.0294 15.7966 11.9985 16.9824 11.9985 18.158C11.9985 19.6634 11.4211 20.4781 9.98774 20.6224C9.93618 20.6224 9.89493 20.674 9.85369 20.6946V23.7778C12.6894 23.9324 14.4939 22.427 15.0714 20.2409C15.6076 18.2095 15.1951 16.1472 15.3188 14.0746Z" fill="url(#paint0_linear_134_443)"/>
<defs>
<linearGradient id="paint0_linear_134_443" x1="1.77961" y1="13.6279" x2="28.8594" y2="13.6279" gradientUnits="userSpaceOnUse">
<stop offset="0.0343547" stop-color="#273580"/>
<stop offset="0.2149" stop-color="#46317C"/>
<stop offset="0.6071" stop-color="#942673"/>
<stop offset="0.8615" stop-color="#CA1E6D"/>
</linearGradient>
</defs>
</svg>
