<svg width="50" height="106" viewBox="0 0 50 106" fill="none" xmlns="http://www.w3.org/2000/svg">
<path opacity="0.1" d="M0.623145 0.264641V-1.73536H-1.37686V0.264641H0.623145ZM0.623145 23.2146H-1.37686V25.2146H0.623145V23.2146ZM20.1231 23.2146H22.1231V21.2146H20.1231V23.2146ZM20.1231 105.265H18.1231V107.265H20.1231V105.265ZM49.8231 105.265V107.265H51.8231V105.265H49.8231ZM49.8231 0.264641H51.8231V-1.73536H49.8231V0.264641ZM-1.37686 0.264641V23.2146H2.62314V0.264641H-1.37686ZM0.623145 25.2146H20.1231V21.2146H0.623145V25.2146ZM18.1231 23.2146V105.265H22.1231V23.2146H18.1231ZM20.1231 107.265H49.8231V103.265H20.1231V107.265ZM51.8231 105.265V0.264641H47.8231V105.265H51.8231ZM49.8231 -1.73536H0.623145V2.26464H49.8231V-1.73536Z" fill="black"/>
</svg>
