<svg width="88" height="108" viewBox="0 0 88 108" fill="none" xmlns="http://www.w3.org/2000/svg">
<path opacity="0.1" d="M47.4731 83.7146L46.1157 82.2459L42.3626 85.7146H47.4731V83.7146ZM67.2731 65.4146L65.919 63.9428L65.9157 63.9459L67.2731 65.4146ZM0.823144 22.0646L-0.890121 21.0328L-1.95688 22.804L-0.151166 23.8113L0.823144 22.0646ZM22.8731 34.3646L21.8988 36.1113L23.564 37.0401L24.5713 35.4212L22.8731 34.3646ZM45.5231 51.9146L44.1622 50.4491L44.1571 50.4538L45.5231 51.9146ZM6.22314 88.6646L4.85712 87.2038L4.22314 87.7967V88.6646H6.22314ZM6.22314 107.265H4.22314V109.265H6.22314V107.265ZM87.9732 107.265V109.265H89.9732V107.265H87.9732ZM87.9732 83.7146H89.9732V81.7146H87.9732V83.7146ZM48.8306 85.1834L68.6306 66.8834L65.9157 63.9459L46.1157 82.2459L48.8306 85.1834ZM68.6273 66.8865C76.2356 59.8868 80.8875 53.9164 83.622 48.2887C86.3752 42.6227 87.1232 37.4306 87.1232 32.1146H83.1232C83.1232 36.9987 82.4461 41.5566 80.0243 46.5405C77.5838 51.5629 73.3107 57.1425 65.919 63.9428L68.6273 66.8865ZM87.1232 32.1146C87.1232 21.7339 82.6646 13.1663 75.0024 7.24466C67.3863 1.35859 56.7204 -1.83536 44.3231 -1.83536V2.16464C56.0759 2.16464 65.81 5.19569 72.5564 10.4096C79.2567 15.5879 83.1232 22.9954 83.1232 32.1146H87.1232ZM44.3231 -1.83536C23.0205 -1.83536 7.46989 7.15202 -0.890121 21.0328L2.53641 23.0965C10.0764 10.5773 24.2258 2.16464 44.3231 2.16464V-1.83536ZM-0.151166 23.8113L21.8988 36.1113L23.8475 32.618L1.79746 20.318L-0.151166 23.8113ZM24.5713 35.4212C28.3776 29.3039 34.6082 26.1646 41.6231 26.1646V22.1646C33.3381 22.1646 25.7687 25.9253 21.175 33.308L24.5713 35.4212ZM41.6231 26.1646C45.8592 26.1646 48.7127 27.1219 50.4754 28.5761C52.1776 29.9805 53.1231 32.0635 53.1231 34.9646H57.1231C57.1231 31.1158 55.8187 27.7988 53.0209 25.4907C50.2836 23.2324 46.3871 22.1646 41.6231 22.1646V26.1646ZM53.1231 34.9646C53.1231 36.9103 52.8632 38.8772 51.6818 41.2564C50.4763 43.6842 48.2585 46.6454 44.1622 50.4491L46.8841 53.3802C51.1878 49.3839 53.77 46.045 55.2645 43.0354C56.7831 39.977 57.1231 37.369 57.1231 34.9646H53.1231ZM44.1571 50.4538L4.85712 87.2038L7.58917 90.1255L46.8892 53.3755L44.1571 50.4538ZM4.22314 88.6646V107.265H8.22314V88.6646H4.22314ZM6.22314 109.265H87.9732V105.265H6.22314V109.265ZM89.9732 107.265V83.7146H85.9732V107.265H89.9732ZM87.9732 81.7146H47.4731V85.7146H87.9732V81.7146Z" fill="black"/>
</svg>
