<svg width="87" height="108" viewBox="0 0 87 108" fill="none" xmlns="http://www.w3.org/2000/svg">
<path opacity="0.1" d="M59.6731 42.2646L58.2082 40.903L55.8043 43.4894L59.2586 44.2212L59.6731 42.2646ZM81.4231 18.8646L82.8881 20.2263L83.4231 19.6506V18.8646H81.4231ZM81.4231 0.264641H83.4231V-1.73536H81.4231V0.264641ZM5.52314 0.264641V-1.73536H3.52314V0.264641H5.52314ZM5.52314 23.2146H3.52314V25.2146H5.52314V23.2146ZM46.9231 23.2146L48.3907 24.5735L51.5007 21.2146H46.9231V23.2146ZM28.1731 43.4646L26.7056 42.1058L26.1731 42.6809V43.4646H28.1731ZM28.1731 62.2146H26.1731V64.2146H28.1731V62.2146ZM10.9231 74.6646L12.0461 73.0097L10.1299 71.7094L9.12237 73.7945L10.9231 74.6646ZM0.123145 97.0146L-1.67763 96.1445L-2.4582 97.7598L-0.936853 98.7106L0.123145 97.0146ZM61.1381 43.6263L82.8881 20.2263L79.9582 17.503L58.2082 40.903L61.1381 43.6263ZM83.4231 18.8646V0.264641H79.4231V18.8646H83.4231ZM81.4231 -1.73536H5.52314V2.26464H81.4231V-1.73536ZM3.52314 0.264641V23.2146H7.52314V0.264641H3.52314ZM5.52314 25.2146H46.9231V21.2146H5.52314V25.2146ZM45.4556 21.8558L26.7056 42.1058L29.6407 44.8235L48.3907 24.5735L45.4556 21.8558ZM26.1731 43.4646V62.2146H30.1731V43.4646H26.1731ZM28.1731 64.2146H40.6231V60.2146H28.1731V64.2146ZM40.6231 64.2146C46.1568 64.2146 49.6938 65.1723 51.7972 66.6051C53.7645 67.9452 54.6731 69.8323 54.6731 72.4146H58.6731C58.6731 68.697 57.2567 65.4841 54.0491 63.2992C50.9775 61.2069 46.4895 60.2146 40.6231 60.2146V64.2146ZM54.6731 72.4146C54.6731 75.2028 53.4185 77.3289 51.0403 78.8479C48.5707 80.4253 44.8311 81.3646 40.0231 81.3646V85.3646C45.2652 85.3646 49.8506 84.354 53.1935 82.2189C56.6278 80.0254 58.6731 76.6765 58.6731 72.4146H54.6731ZM40.0231 81.3646C30.4869 81.3646 20.0857 78.4651 12.0461 73.0097L9.80014 76.3196C18.5606 82.2642 29.7593 85.3646 40.0231 85.3646V81.3646ZM9.12237 73.7945L-1.67763 96.1445L1.92392 97.8848L12.7239 75.5348L9.12237 73.7945ZM-0.936853 98.7106C10.2608 105.709 26.1051 109.365 40.9231 109.365V105.365C26.6412 105.365 11.5855 101.82 1.18314 95.3186L-0.936853 98.7106ZM40.9231 109.365C57.1019 109.365 69.0476 104.991 76.9793 98.0925C84.9228 91.1843 88.6731 81.8839 88.6731 72.4146H84.6731C84.6731 80.7954 81.3735 88.97 74.3544 95.0743C67.3237 101.189 56.3944 105.365 40.9231 105.365V109.365ZM88.6731 72.4146C88.6731 64.4834 86.2057 57.4011 81.3168 51.805C76.438 46.2206 69.269 42.2533 60.0877 40.3081L59.2586 44.2212C67.7773 46.026 74.1083 49.6337 78.3045 54.4368C82.4905 59.2282 84.6731 65.3458 84.6731 72.4146H88.6731Z" fill="black"/>
</svg>
