<svg width="101" height="106" viewBox="0 0 101 106" fill="none" xmlns="http://www.w3.org/2000/svg">
<path opacity="0.1" d="M100.823 61.6146H102.823V59.6146H100.823V61.6146ZM85.2232 61.6146H83.2232V63.6146H85.2232V61.6146ZM85.2232 43.7646H87.2232V41.7646H85.2232V43.7646ZM57.1731 43.7646V41.7646H55.1731V43.7646H57.1731ZM57.1731 61.6146V63.6146H59.1731V61.6146H57.1731ZM35.8731 61.6146L34.2322 60.4712L32.0418 63.6146H35.8731V61.6146ZM78.6231 0.264641L80.2641 1.40806L82.4545 -1.73536H78.6231V0.264641ZM47.8731 0.264641V-1.73536H46.8475L46.249 -0.902401L47.8731 0.264641ZM0.773145 65.8146L-0.851051 64.6476L-1.22686 65.1706V65.8146H0.773145ZM0.773145 85.1646H-1.22686V87.1646H0.773145V85.1646ZM56.2731 85.1646H58.2731V83.1646H56.2731V85.1646ZM56.2731 105.265H54.2731V107.265H56.2731V105.265ZM85.2232 105.265V107.265H87.2232V105.265H85.2232ZM85.2232 85.1646V83.1646H83.2232V85.1646H85.2232ZM100.823 85.1646V87.1646H102.823V85.1646H100.823ZM100.823 59.6146H85.2232V63.6146H100.823V59.6146ZM87.2232 61.6146V43.7646H83.2232V61.6146H87.2232ZM85.2232 41.7646H57.1731V45.7646H85.2232V41.7646ZM55.1731 43.7646V61.6146H59.1731V43.7646H55.1731ZM57.1731 59.6146H35.8731V63.6146H57.1731V59.6146ZM37.5141 62.7581L80.2641 1.40806L76.9822 -0.87878L34.2322 60.4712L37.5141 62.7581ZM78.6231 -1.73536H47.8731V2.26464H78.6231V-1.73536ZM46.249 -0.902401L-0.851051 64.6476L2.39734 66.9817L49.4973 1.43168L46.249 -0.902401ZM-1.22686 65.8146V85.1646H2.77314V65.8146H-1.22686ZM0.773145 87.1646H56.2731V83.1646H0.773145V87.1646ZM54.2731 85.1646V105.265H58.2731V85.1646H54.2731ZM56.2731 107.265H85.2232V103.265H56.2731V107.265ZM87.2232 105.265V85.1646H83.2232V105.265H87.2232ZM85.2232 87.1646H100.823V83.1646H85.2232V87.1646ZM102.823 85.1646V61.6146H98.8231V85.1646H102.823Z" fill="black"/>
</svg>
