<svg width="49" height="37" viewBox="0 0 49 37" fill="none" xmlns="http://www.w3.org/2000/svg">
<path opacity="0.1" d="M15.5992 37.7C20.3119 37.7 24.444 35.9318 27.387 32.5924C30.3209 29.2633 31.9992 24.4588 31.9992 18.5H29.9992C29.9992 24.0912 28.4275 28.3867 25.8865 31.2701C23.3544 34.1432 19.7866 35.7 15.5992 35.7V37.7ZM31.9992 18.5C31.9992 12.5412 30.3209 7.73673 27.387 4.40758C24.444 1.06821 20.3119 -0.700003 15.5992 -0.700003V1.3C19.7866 1.3 23.3544 2.85679 25.8865 5.72992C28.4275 8.61327 29.9992 12.9088 29.9992 18.5H31.9992ZM15.5992 -0.700003C10.8632 -0.700003 6.71843 1.06704 3.76848 4.40673C0.827559 7.7362 -0.850781 12.5412 -0.850781 18.5H1.14922C1.14922 12.9088 2.72088 8.61379 5.26745 5.73077C7.80501 2.85795 11.3853 1.3 15.5992 1.3V-0.700003ZM-0.850781 18.5C-0.850781 24.4588 0.827559 29.2638 3.76848 32.5933C6.71843 35.933 10.8632 37.7 15.5992 37.7V35.7C11.3853 35.7 7.80501 34.142 5.26745 31.2692C2.72088 28.3862 1.14922 24.0912 1.14922 18.5H-0.850781ZM15.5992 27.6C14.3452 27.6 13.296 27.092 12.5041 25.7874C11.6679 24.4099 11.0992 22.1008 11.0992 18.5H9.09922C9.09922 22.2492 9.68051 24.9901 10.7944 26.8251C11.9525 28.733 13.6532 29.6 15.5992 29.6V27.6ZM11.0992 18.5C11.0992 14.8992 11.6679 12.5901 12.5041 11.2126C13.296 9.90802 14.3452 9.4 15.5992 9.4V7.4C13.6532 7.4 11.9525 8.26697 10.7944 10.1749C9.68051 12.0099 9.09922 14.7508 9.09922 18.5H11.0992ZM15.5992 9.4C16.8224 9.4 17.8607 9.9029 18.6492 11.2102C19.4807 12.5889 20.0492 14.8996 20.0492 18.5H22.0492C22.0492 14.7504 21.4677 12.011 20.3618 10.1773C19.2127 8.2721 17.526 7.4 15.5992 7.4V9.4ZM20.0492 18.5C20.0492 22.1004 19.4807 24.411 18.6492 25.7898C17.8607 27.0971 16.8224 27.6 15.5992 27.6V29.6C17.526 29.6 19.2127 28.7279 20.3618 26.8227C21.4677 24.9889 22.0492 22.2496 22.0492 18.5H20.0492ZM32.5871 0.999998V-1.90735e-06H31.5871V0.999998H32.5871ZM32.5871 8.65H31.5871V9.65H32.5871V8.65ZM39.0871 8.65H40.0871V7.65H39.0871V8.65ZM39.0871 36H38.0871V37H39.0871V36ZM48.9871 36V37H49.9871V36H48.9871ZM48.9871 0.999998H49.9871V-1.90735e-06H48.9871V0.999998ZM31.5871 0.999998V8.65H33.5871V0.999998H31.5871ZM32.5871 9.65H39.0871V7.65H32.5871V9.65ZM38.0871 8.65V36H40.0871V8.65H38.0871ZM39.0871 37H48.9871V35H39.0871V37ZM49.9871 36V0.999998H47.9871V36H49.9871ZM48.9871 -1.90735e-06H32.5871V2H48.9871V-1.90735e-06Z" fill="black"/>
</svg>
