<svg width="62" height="37" viewBox="0 0 62 37" fill="none" xmlns="http://www.w3.org/2000/svg">
<path opacity="0.1" d="M15.7652 37.7C20.4779 37.7 24.61 35.9318 27.553 32.5924C30.4869 29.2633 32.1652 24.4588 32.1652 18.5H30.1652C30.1652 24.0912 28.5936 28.3867 26.0525 31.2701C23.5204 34.1432 19.9526 35.7 15.7652 35.7V37.7ZM32.1652 18.5C32.1652 12.5412 30.4869 7.73673 27.553 4.40758C24.61 1.06821 20.4779 -0.700003 15.7652 -0.700003V1.3C19.9526 1.3 23.5204 2.85679 26.0525 5.72992C28.5936 8.61327 30.1652 12.9088 30.1652 18.5H32.1652ZM15.7652 -0.700003C11.0292 -0.700003 6.88444 1.06704 3.9345 4.40673C0.993574 7.7362 -0.684766 12.5412 -0.684766 18.5H1.31523C1.31523 12.9088 2.88689 8.61379 5.43347 5.73077C7.97103 2.85795 11.5513 1.3 15.7652 1.3V-0.700003ZM-0.684766 18.5C-0.684766 24.4588 0.993574 29.2638 3.9345 32.5933C6.88444 35.933 11.0292 37.7 15.7652 37.7V35.7C11.5513 35.7 7.97103 34.142 5.43347 31.2692C2.88689 28.3862 1.31523 24.0912 1.31523 18.5H-0.684766ZM15.7652 27.6C14.5112 27.6 13.462 27.092 12.6701 25.7874C11.8339 24.4099 11.2652 22.1008 11.2652 18.5H9.26523C9.26523 22.2492 9.84653 24.9901 10.9604 26.8251C12.1185 28.733 13.8192 29.6 15.7652 29.6V27.6ZM11.2652 18.5C11.2652 14.8992 11.8339 12.5901 12.6701 11.2126C13.462 9.90802 14.5112 9.4 15.7652 9.4V7.4C13.8192 7.4 12.1185 8.26697 10.9604 10.1749C9.84653 12.0099 9.26523 14.7508 9.26523 18.5H11.2652ZM15.7652 9.4C16.9884 9.4 18.0267 9.9029 18.8152 11.2102C19.6467 12.5889 20.2152 14.8996 20.2152 18.5H22.2152C22.2152 14.7504 21.6338 12.011 20.5278 10.1773C19.3788 8.2721 17.692 7.4 15.7652 7.4V9.4ZM20.2152 18.5C20.2152 22.1004 19.6467 24.411 18.8152 25.7898C18.0267 27.0971 16.9884 27.6 15.7652 27.6V29.6C17.692 29.6 19.3788 28.7279 20.5278 26.8227C21.6338 24.9889 22.2152 22.2496 22.2152 18.5H20.2152ZM47.7031 28.15L47.0244 27.4156L45.1478 29.15H47.7031V28.15ZM54.3031 22.05L53.6261 21.3141L53.6244 21.3156L54.3031 22.05ZM32.1531 7.6L31.2965 7.08407L30.7631 7.96968L31.666 8.47331L32.1531 7.6ZM39.5031 11.7L39.016 12.5733L39.8485 13.0377L40.3522 12.2283L39.5031 11.7ZM47.0531 17.55L46.3727 16.8172L46.3701 16.8196L47.0531 17.55ZM33.9531 29.8L33.2701 29.0696L32.9531 29.366V29.8H33.9531ZM33.9531 36H32.9531V37H33.9531V36ZM61.2031 36V37H62.2031V36H61.2031ZM61.2031 28.15H62.2031V27.15H61.2031V28.15ZM48.3819 28.8844L54.9819 22.7844L53.6244 21.3156L47.0244 27.4156L48.3819 28.8844ZM54.9802 22.7859C57.5344 20.4361 59.1165 18.4134 60.0526 16.487C60.9979 14.5415 61.2531 12.758 61.2531 10.95H59.2531C59.2531 12.542 59.0333 14.0085 58.2537 15.6129C57.4647 17.2366 56.0719 19.0639 53.6261 21.3141L54.9802 22.7859ZM61.2531 10.95C61.2531 7.3846 59.7176 4.4321 57.0834 2.39626C54.4722 0.378222 50.8393 -0.700003 46.6531 -0.700003V1.3C50.517 1.3 53.684 2.29677 55.8604 3.97874C58.0137 5.6429 59.2531 8.01539 59.2531 10.95H61.2531ZM46.6531 -0.700003C39.4518 -0.700003 34.1515 2.34369 31.2965 7.08407L33.0098 8.11592C35.4548 4.05631 40.0544 1.3 46.6531 1.3V-0.700003ZM31.666 8.47331L39.016 12.5733L39.9903 10.8267L32.6403 6.72668L31.666 8.47331ZM40.3522 12.2283C41.5553 10.2946 43.5206 9.3 45.7531 9.3V7.3C42.8856 7.3 40.2509 8.60535 38.6541 11.1717L40.3522 12.2283ZM45.7531 9.3C47.1212 9.3 47.9854 9.60989 48.4917 10.0276C48.9679 10.4204 49.2531 11.0119 49.2531 11.9H51.2531C51.2531 10.5381 50.7884 9.32958 49.7645 8.48488C48.7708 7.66511 47.3851 7.3 45.7531 7.3V9.3ZM49.2531 11.9C49.2531 12.5103 49.1732 13.1125 48.8075 13.849C48.4297 14.6098 47.7208 15.5654 46.3727 16.8172L47.7336 18.2828C49.1855 16.9346 50.0766 15.7902 50.5988 14.7385C51.1331 13.6624 51.2531 12.7397 51.2531 11.9H49.2531ZM46.3701 16.8196L33.2701 29.0696L34.6361 30.5304L47.7361 18.2804L46.3701 16.8196ZM32.9531 29.8V36H34.9531V29.8H32.9531ZM33.9531 37H61.2031V35H33.9531V37ZM62.2031 36V28.15H60.2031V36H62.2031ZM61.2031 27.15H47.7031V29.15H61.2031V27.15Z" fill="black"/>
</svg>
