<svg width="61" height="37" viewBox="0 0 61 37" fill="none" xmlns="http://www.w3.org/2000/svg">
<path opacity="0.1" d="M15.7164 37.7C20.4291 37.7 24.5612 35.9318 27.5041 32.5924C30.4381 29.2633 32.1164 24.4588 32.1164 18.5H30.1164C30.1164 24.0912 28.5447 28.3867 26.0037 31.2701C23.4716 34.1432 19.9038 35.7 15.7164 35.7V37.7ZM32.1164 18.5C32.1164 12.5412 30.4381 7.73673 27.5041 4.40758C24.5612 1.06821 20.4291 -0.700003 15.7164 -0.700003V1.3C19.9038 1.3 23.4716 2.85679 26.0037 5.72992C28.5447 8.61327 30.1164 12.9088 30.1164 18.5H32.1164ZM15.7164 -0.700003C10.9804 -0.700003 6.83561 1.06704 3.88567 4.40673C0.944746 7.7362 -0.733594 12.5412 -0.733594 18.5H1.26641C1.26641 12.9088 2.83807 8.61379 5.38464 5.73077C7.9222 2.85795 11.5024 1.3 15.7164 1.3V-0.700003ZM-0.733594 18.5C-0.733594 24.4588 0.944746 29.2638 3.88567 32.5933C6.83561 35.933 10.9804 37.7 15.7164 37.7V35.7C11.5024 35.7 7.9222 34.142 5.38464 31.2692C2.83807 28.3862 1.26641 24.0912 1.26641 18.5H-0.733594ZM15.7164 27.6C14.4624 27.6 13.4132 27.092 12.6212 25.7874C11.7851 24.4099 11.2164 22.1008 11.2164 18.5H9.21641C9.21641 22.2492 9.7977 24.9901 10.9116 26.8251C12.0697 28.733 13.7704 29.6 15.7164 29.6V27.6ZM11.2164 18.5C11.2164 14.8992 11.7851 12.5901 12.6212 11.2126C13.4132 9.90802 14.4624 9.4 15.7164 9.4V7.4C13.7704 7.4 12.0697 8.26697 10.9116 10.1749C9.7977 12.0099 9.21641 14.7508 9.21641 18.5H11.2164ZM15.7164 9.4C16.9396 9.4 17.9779 9.9029 18.7663 11.2102C19.5979 12.5889 20.1664 14.8996 20.1664 18.5H22.1664C22.1664 14.7504 21.5849 12.011 20.479 10.1773C19.3299 8.2721 17.6432 7.4 15.7164 7.4V9.4ZM20.1664 18.5C20.1664 22.1004 19.5979 24.411 18.7663 25.7898C17.9779 27.0971 16.9396 27.6 15.7164 27.6V29.6C17.6432 29.6 19.3299 28.7279 20.479 26.8227C21.5849 24.9889 22.1664 22.2496 22.1664 18.5H20.1664ZM51.9566 15L51.2242 14.3192L50.0222 15.6124L51.7494 15.9783L51.9566 15ZM59.2066 7.2L59.9391 7.88081L60.2066 7.59297V7.2H59.2066ZM59.2066 0.999998H60.2066V-1.90735e-06H59.2066V0.999998ZM33.9066 0.999998V-1.90735e-06H32.9066V0.999998H33.9066ZM33.9066 8.65H32.9066V9.65H33.9066V8.65ZM47.7066 8.65L48.4404 9.3294L49.9954 7.65H47.7066V8.65ZM41.4566 15.4L40.7229 14.7206L40.4566 15.0081V15.4H41.4566ZM41.4566 21.65H40.4566V22.65H41.4566V21.65ZM35.7066 25.8L36.2681 24.9725L35.31 24.3224L34.8063 25.3649L35.7066 25.8ZM32.1066 33.25L31.2063 32.8149L30.816 33.6226L31.5766 34.098L32.1066 33.25ZM52.6891 15.6808L59.9391 7.88081L58.4742 6.51919L51.2242 14.3192L52.6891 15.6808ZM60.2066 7.2V0.999998H58.2066V7.2H60.2066ZM59.2066 -1.90735e-06H33.9066V2H59.2066V-1.90735e-06ZM32.9066 0.999998V8.65H34.9066V0.999998H32.9066ZM33.9066 9.65H47.7066V7.65H33.9066V9.65ZM46.9729 7.97059L40.7229 14.7206L42.1904 16.0794L48.4404 9.3294L46.9729 7.97059ZM40.4566 15.4V21.65H42.4566V15.4H40.4566ZM41.4566 22.65H45.6066V20.65H41.4566V22.65ZM45.6066 22.65C47.4235 22.65 48.5232 22.9664 49.1437 23.389C49.6961 23.7653 49.9566 24.2838 49.9566 25.05H51.9566C51.9566 23.7162 51.4422 22.5347 50.2696 21.736C49.1651 20.9837 47.5898 20.65 45.6066 20.65V22.65ZM49.9566 25.05C49.9566 25.8566 49.6043 26.4634 48.8996 26.9135C48.1492 27.3928 46.9731 27.7 45.4066 27.7V29.7C47.1902 29.7 48.7891 29.3572 49.9762 28.599C51.209 27.8116 51.9566 26.5934 51.9566 25.05H49.9566ZM45.4066 27.7C42.2885 27.7 38.8879 26.7502 36.2681 24.9725L35.1451 26.6275C38.1254 28.6498 41.9247 29.7 45.4066 29.7V27.7ZM34.8063 25.3649L31.2063 32.8149L33.007 33.6851L36.607 26.2351L34.8063 25.3649ZM31.5766 34.098C35.3755 36.4723 40.7226 37.7 45.7066 37.7V35.7C40.9907 35.7 36.0378 34.5277 32.6366 32.402L31.5766 34.098ZM45.7066 37.7C51.1585 37.7 55.2251 36.2255 57.9441 33.8608C60.669 31.4911 61.9566 28.2971 61.9566 25.05H59.9566C59.9566 27.7529 58.8943 30.3839 56.6317 32.3517C54.3632 34.3245 50.8048 35.7 45.7066 35.7V37.7ZM61.9566 25.05C61.9566 22.3344 61.1104 19.8932 59.4222 17.9608C57.7391 16.0342 55.2796 14.6818 52.1639 14.0217L51.7494 15.9783C54.5337 16.5682 56.5742 17.7408 57.9161 19.2767C59.2528 20.8068 59.9566 22.7656 59.9566 25.05H61.9566Z" fill="black"/>
</svg>
