<svg width="68" height="37" viewBox="0 0 68 37" fill="none" xmlns="http://www.w3.org/2000/svg">
<path opacity="0.1" d="M16.0309 37.7C20.7435 37.7 24.8757 35.9318 27.8186 32.5924C30.7525 29.2633 32.4309 24.4588 32.4309 18.5H30.4309C30.4309 24.0912 28.8592 28.3867 26.3181 31.2701C23.7861 34.1432 20.2182 35.7 16.0309 35.7V37.7ZM32.4309 18.5C32.4309 12.5412 30.7525 7.73673 27.8186 4.40758C24.8757 1.06821 20.7435 -0.700003 16.0309 -0.700003V1.3C20.2182 1.3 23.7861 2.85679 26.3181 5.72992C28.8592 8.61327 30.4309 12.9088 30.4309 18.5H32.4309ZM16.0309 -0.700003C11.2948 -0.700003 7.15007 1.06704 4.20012 4.40673C1.2592 7.7362 -0.419141 12.5412 -0.419141 18.5H1.58086C1.58086 12.9088 3.15252 8.61379 5.6991 5.73077C8.23665 2.85795 11.8169 1.3 16.0309 1.3V-0.700003ZM-0.419141 18.5C-0.419141 24.4588 1.2592 29.2638 4.20012 32.5933C7.15007 35.933 11.2948 37.7 16.0309 37.7V35.7C11.8169 35.7 8.23665 34.142 5.6991 31.2692C3.15252 28.3862 1.58086 24.0912 1.58086 18.5H-0.419141ZM16.0309 27.6C14.7769 27.6 13.7276 27.092 12.9357 25.7874C12.0996 24.4099 11.5309 22.1008 11.5309 18.5H9.53086C9.53086 22.2492 10.1122 24.9901 11.226 26.8251C12.3841 28.733 14.0849 29.6 16.0309 29.6V27.6ZM11.5309 18.5C11.5309 14.8992 12.0996 12.5901 12.9357 11.2126C13.7276 9.90802 14.7769 9.4 16.0309 9.4V7.4C14.0849 7.4 12.3841 8.26697 11.226 10.1749C10.1122 12.0099 9.53086 14.7508 9.53086 18.5H11.5309ZM16.0309 9.4C17.2541 9.4 18.2923 9.9029 19.0808 11.2102C19.9123 12.5889 20.4809 14.8996 20.4809 18.5H22.4809C22.4809 14.7504 21.8994 12.011 20.7934 10.1773C19.6444 8.2721 17.9576 7.4 16.0309 7.4V9.4ZM20.4809 18.5C20.4809 22.1004 19.9123 24.411 19.0808 25.7898C18.2923 27.0971 17.2541 27.6 16.0309 27.6V29.6C17.9576 29.6 19.6444 28.7279 20.7934 26.8227C21.8994 24.9889 22.4809 22.2496 22.4809 18.5H20.4809ZM67.8094 21.45H68.8094V20.45H67.8094V21.45ZM62.6094 21.45H61.6094V22.45H62.6094V21.45ZM62.6094 15.5H63.6094V14.5H62.6094V15.5ZM53.2594 15.5V14.5H52.2594V15.5H53.2594ZM53.2594 21.45V22.45H54.2594V21.45H53.2594ZM46.1594 21.45L45.3389 20.8783L44.2437 22.45H46.1594V21.45ZM60.4094 0.999998L61.2298 1.57171L62.325 -1.90735e-06H60.4094V0.999998ZM50.1594 0.999998V-1.90735e-06H49.6465L49.3473 0.416476L50.1594 0.999998ZM34.4594 22.85L33.6473 22.2665L33.4594 22.528V22.85H34.4594ZM34.4594 29.3H33.4594V30.3H34.4594V29.3ZM52.9594 29.3H53.9594V28.3H52.9594V29.3ZM52.9594 36H51.9594V37H52.9594V36ZM62.6094 36V37H63.6094V36H62.6094ZM62.6094 29.3V28.3H61.6094V29.3H62.6094ZM67.8094 29.3V30.3H68.8094V29.3H67.8094ZM67.8094 20.45H62.6094V22.45H67.8094V20.45ZM63.6094 21.45V15.5H61.6094V21.45H63.6094ZM62.6094 14.5H53.2594V16.5H62.6094V14.5ZM52.2594 15.5V21.45H54.2594V15.5H52.2594ZM53.2594 20.45H46.1594V22.45H53.2594V20.45ZM46.9798 22.0217L61.2298 1.57171L59.5889 0.428287L45.3389 20.8783L46.9798 22.0217ZM60.4094 -1.90735e-06H50.1594V2H60.4094V-1.90735e-06ZM49.3473 0.416476L33.6473 22.2665L35.2715 23.4335L50.9715 1.58352L49.3473 0.416476ZM33.4594 22.85V29.3H35.4594V22.85H33.4594ZM34.4594 30.3H52.9594V28.3H34.4594V30.3ZM51.9594 29.3V36H53.9594V29.3H51.9594ZM52.9594 37H62.6094V35H52.9594V37ZM63.6094 36V29.3H61.6094V36H63.6094ZM62.6094 30.3H67.8094V28.3H62.6094V30.3ZM68.8094 29.3V21.45H66.8094V29.3H68.8094Z" fill="black"/>
</svg>
