<svg width="63" height="37" viewBox="0 0 63 37" fill="none" xmlns="http://www.w3.org/2000/svg">
<path opacity="0.1" d="M15.8502 37.7C20.5628 37.7 24.695 35.9318 27.6379 32.5924C30.5719 29.2633 32.2502 24.4588 32.2502 18.5H30.2502C30.2502 24.0912 28.6785 28.3867 26.1375 31.2701C23.6054 34.1432 20.0375 35.7 15.8502 35.7V37.7ZM32.2502 18.5C32.2502 12.5412 30.5719 7.73673 27.6379 4.40758C24.695 1.06821 20.5628 -0.700003 15.8502 -0.700003V1.3C20.0375 1.3 23.6054 2.85679 26.1375 5.72992C28.6785 8.61327 30.2502 12.9088 30.2502 18.5H32.2502ZM15.8502 -0.700003C11.1142 -0.700003 6.9694 1.06704 4.01946 4.40673C1.07854 7.7362 -0.599805 12.5412 -0.599805 18.5H1.4002C1.4002 12.9088 2.97186 8.61379 5.51843 5.73077C8.05599 2.85795 11.6362 1.3 15.8502 1.3V-0.700003ZM-0.599805 18.5C-0.599805 24.4588 1.07854 29.2638 4.01946 32.5933C6.9694 35.933 11.1142 37.7 15.8502 37.7V35.7C11.6362 35.7 8.05599 34.142 5.51843 31.2692C2.97186 28.3862 1.4002 24.0912 1.4002 18.5H-0.599805ZM15.8502 27.6C14.5962 27.6 13.5469 27.092 12.755 25.7874C11.9189 24.4099 11.3502 22.1008 11.3502 18.5H9.3502C9.3502 22.2492 9.93149 24.9901 11.0454 26.8251C12.2034 28.733 13.9042 29.6 15.8502 29.6V27.6ZM11.3502 18.5C11.3502 14.8992 11.9189 12.5901 12.755 11.2126C13.5469 9.90802 14.5962 9.4 15.8502 9.4V7.4C13.9042 7.4 12.2034 8.26697 11.0454 10.1749C9.93149 12.0099 9.3502 14.7508 9.3502 18.5H11.3502ZM15.8502 9.4C17.0734 9.4 18.1117 9.9029 18.9001 11.2102C19.7317 12.5889 20.3002 14.8996 20.3002 18.5H22.3002C22.3002 14.7504 21.7187 12.011 20.6128 10.1773C19.4637 8.2721 17.777 7.4 15.8502 7.4V9.4ZM20.3002 18.5C20.3002 22.1004 19.7317 24.411 18.9001 25.7898C18.1117 27.0971 17.0734 27.6 15.8502 27.6V29.6C17.777 29.6 19.4637 28.7279 20.6128 26.8227C21.7187 24.9889 22.3002 22.2496 22.3002 18.5H20.3002ZM45.3787 13.75L44.3826 13.6621L44.2866 14.75H45.3787V13.75ZM45.8287 8.65V7.65H44.9131L44.8326 8.5621L45.8287 8.65ZM59.9287 8.65V9.65H60.9287V8.65H59.9287ZM59.9287 0.999998H60.9287V-1.90735e-06H59.9287V0.999998ZM37.6287 0.999998V-1.90735e-06H36.7106L36.6324 0.914735L37.6287 0.999998ZM35.8787 21.45L34.8824 21.3647L34.7895 22.45H35.8787V21.45ZM36.8787 25.8L37.4334 24.9679L36.4727 24.3275L35.976 25.3698L36.8787 25.8ZM33.3287 33.25L32.426 32.8198L32.0446 33.6201L32.7934 34.0946L33.3287 33.25ZM47.7287 12.75H45.3787V14.75H47.7287V12.75ZM46.3748 13.8379L46.8248 8.73789L44.8326 8.5621L44.3826 13.6621L46.3748 13.8379ZM45.8287 9.65H59.9287V7.65H45.8287V9.65ZM60.9287 8.65V0.999998H58.9287V8.65H60.9287ZM59.9287 -1.90735e-06H37.6287V2H59.9287V-1.90735e-06ZM36.6324 0.914735L34.8824 21.3647L36.8751 21.5353L38.6251 1.08526L36.6324 0.914735ZM35.8787 22.45H45.3787V20.45H35.8787V22.45ZM45.3787 22.45C48.0111 22.45 49.4813 22.8027 50.2705 23.2762C50.6415 23.4989 50.8506 23.7415 50.9764 23.99C51.1066 24.2472 51.1787 24.5728 51.1787 25H53.1787C53.1787 24.3521 53.0696 23.6966 52.7607 23.0866C52.4475 22.4679 51.9596 21.9574 51.2995 21.5613C50.0261 20.7973 48.0964 20.45 45.3787 20.45V22.45ZM51.1787 25C51.1787 25.8006 50.8192 26.4237 50.0939 26.8902C49.3283 27.3828 48.1386 27.7 46.5787 27.7V29.7C48.3688 29.7 49.9791 29.3422 51.176 28.5723C52.4132 27.7763 53.1787 26.5494 53.1787 25H51.1787ZM46.5787 27.7C43.4167 27.7 40.1114 26.7533 37.4334 24.9679L36.324 26.632C39.346 28.6467 43.0408 29.7 46.5787 29.7V27.7ZM35.976 25.3698L32.426 32.8198L34.2315 33.6802L37.7815 26.2302L35.976 25.3698ZM32.7934 34.0946C36.5459 36.473 41.8965 37.7 46.8787 37.7V35.7C42.1609 35.7 37.2116 34.527 33.864 32.4054L32.7934 34.0946ZM46.8787 37.7C52.3302 37.7 56.401 36.2255 59.1226 33.8177C61.8507 31.4041 63.1287 28.1339 63.1287 24.75H61.1287C61.1287 27.6161 60.0567 30.3209 57.7973 32.3198C55.5314 34.3245 51.9772 35.7 46.8787 35.7V37.7ZM63.1287 24.75C63.1287 21.4233 62.0338 18.3692 59.4604 16.1655C56.9095 13.9809 53.0427 12.75 47.7287 12.75V14.75C52.7647 14.75 56.0979 15.9191 58.1595 17.6845C60.1987 19.4308 61.1287 21.8767 61.1287 24.75H63.1287Z" fill="black"/>
</svg>
