<svg width="50" height="37" viewBox="0 0 50 37" fill="none" xmlns="http://www.w3.org/2000/svg">
<path d="M16.0992 37.2C20.6805 37.2 24.6716 35.4846 27.5118 32.2618C30.3476 29.0441 31.9992 24.3669 31.9992 18.5H30.9992C30.9992 24.1831 29.4009 28.6059 26.7616 31.6007C24.1268 34.5904 20.4179 36.2 16.0992 36.2V37.2ZM31.9992 18.5C31.9992 12.6331 30.3476 7.95586 27.5118 4.73816C24.6716 1.51535 20.6805 -0.200003 16.0992 -0.200003V0.799997C20.4179 0.799997 24.1268 2.40964 26.7616 5.39933C29.4009 8.39413 30.9992 12.8169 30.9992 18.5H31.9992ZM16.0992 -0.200003C11.4937 -0.200003 7.49007 1.51477 4.64323 4.73774C1.80089 7.9556 0.149219 12.6331 0.149219 18.5H1.14922C1.14922 12.8169 2.74755 8.3944 5.39271 5.39976C8.03337 2.41022 11.7547 0.799997 16.0992 0.799997V-0.200003ZM0.149219 18.5C0.149219 24.3669 1.80089 29.0444 4.64323 32.2623C7.49007 35.4852 11.4937 37.2 16.0992 37.2V36.2C11.7547 36.2 8.03337 34.5898 5.39271 31.6002C2.74755 28.6056 1.14922 24.1831 1.14922 18.5H0.149219ZM16.0992 28.1C14.6722 28.1 13.4601 27.5022 12.5766 26.0468C11.6711 24.5549 11.0992 22.1379 11.0992 18.5H10.0992C10.0992 22.2121 10.6774 24.8451 11.7218 26.5657C12.7883 28.3228 14.3262 29.1 16.0992 29.1V28.1ZM11.0992 18.5C11.0992 14.8621 11.6711 12.4451 12.5766 10.9532C13.4601 9.49776 14.6722 8.9 16.0992 8.9V7.9C14.3262 7.9 12.7883 8.67723 11.7218 10.4343C10.6774 12.1549 10.0992 14.7879 10.0992 18.5H11.0992ZM16.0992 8.9C17.4983 8.9 18.6987 9.4952 19.5773 10.952C20.4775 12.4445 21.0492 14.8623 21.0492 18.5H22.0492C22.0492 14.7877 21.471 12.1555 20.4336 10.4355C19.3747 8.6798 17.8501 7.9 16.0992 7.9V8.9ZM21.0492 18.5C21.0492 22.1377 20.4775 24.5555 19.5773 26.048C18.6987 27.5048 17.4983 28.1 16.0992 28.1V29.1C17.8501 29.1 19.3747 28.3202 20.4336 26.5645C21.471 24.8445 22.0492 22.2123 22.0492 18.5H21.0492ZM33.0871 0.999998V0.499998H32.5871V0.999998H33.0871ZM33.0871 8.65H32.5871V9.15H33.0871V8.65ZM39.5871 8.65H40.0871V8.15H39.5871V8.65ZM39.5871 36H39.0871V36.5H39.5871V36ZM49.4871 36V36.5H49.9871V36H49.4871ZM49.4871 0.999998H49.9871V0.499998H49.4871V0.999998ZM32.5871 0.999998V8.65H33.5871V0.999998H32.5871ZM33.0871 9.15H39.5871V8.15H33.0871V9.15ZM39.0871 8.65V36H40.0871V8.65H39.0871ZM39.5871 36.5H49.4871V35.5H39.5871V36.5ZM49.9871 36V0.999998H48.9871V36H49.9871ZM49.4871 0.499998H33.0871V1.5H49.4871V0.499998Z" fill="#009F9A"/>
</svg>
