<svg width="62" height="37" viewBox="0 0 62 37" fill="none" xmlns="http://www.w3.org/2000/svg">
<path d="M16.2652 37.2C20.8466 37.2 24.8376 35.4846 27.6779 32.2618C30.5136 29.0441 32.1652 24.3669 32.1652 18.5H31.1652C31.1652 24.1831 29.5669 28.6059 26.9276 31.6007C24.2928 34.5904 20.5839 36.2 16.2652 36.2V37.2ZM32.1652 18.5C32.1652 12.6331 30.5136 7.95586 27.6779 4.73816C24.8376 1.51535 20.8466 -0.200003 16.2652 -0.200003V0.799997C20.5839 0.799997 24.2928 2.40964 26.9276 5.39933C29.5669 8.39413 31.1652 12.8169 31.1652 18.5H32.1652ZM16.2652 -0.200003C11.6597 -0.200003 7.65609 1.51477 4.80924 4.73774C1.9669 7.9556 0.315234 12.6331 0.315234 18.5H1.31523C1.31523 12.8169 2.91356 8.3944 5.55873 5.39976C8.19938 2.41022 11.9208 0.799997 16.2652 0.799997V-0.200003ZM0.315234 18.5C0.315234 24.3669 1.9669 29.0444 4.80924 32.2623C7.65609 35.4852 11.6597 37.2 16.2652 37.2V36.2C11.9208 36.2 8.19938 34.5898 5.55873 31.6002C2.91356 28.6056 1.31523 24.1831 1.31523 18.5H0.315234ZM16.2652 28.1C14.8382 28.1 13.6261 27.5022 12.7427 26.0468C11.8371 24.5549 11.2652 22.1379 11.2652 18.5H10.2652C10.2652 22.2121 10.8434 24.8451 11.8878 26.5657C12.9544 28.3228 14.4922 29.1 16.2652 29.1V28.1ZM11.2652 18.5C11.2652 14.8621 11.8371 12.4451 12.7427 10.9532C13.6261 9.49776 14.8382 8.9 16.2652 8.9V7.9C14.4922 7.9 12.9544 8.67723 11.8878 10.4343C10.8434 12.1549 10.2652 14.7879 10.2652 18.5H11.2652ZM16.2652 8.9C17.6643 8.9 18.8647 9.4952 19.7433 10.952C20.6435 12.4445 21.2152 14.8623 21.2152 18.5H22.2152C22.2152 14.7877 21.637 12.1555 20.5996 10.4355C19.5407 8.6798 18.0161 7.9 16.2652 7.9V8.9ZM21.2152 18.5C21.2152 22.1377 20.6435 24.5555 19.7433 26.048C18.8647 27.5048 17.6643 28.1 16.2652 28.1V29.1C18.0161 29.1 19.5407 28.3202 20.5996 26.5645C21.637 24.8445 22.2152 22.2123 22.2152 18.5H21.2152ZM48.2031 28.15L47.8638 27.7828L46.9255 28.65H48.2031V28.15ZM54.8031 22.05L54.4646 21.682L54.4638 21.6828L54.8031 22.05ZM32.6531 7.6L32.2248 7.34204L31.9581 7.78484L32.4095 8.03666L32.6531 7.6ZM40.0031 11.7L39.7595 12.1367L40.1758 12.3689L40.4277 11.9641L40.0031 11.7ZM47.5531 17.55L47.2129 17.1836L47.2116 17.1848L47.5531 17.55ZM34.4531 29.8L34.1116 29.4348L33.9531 29.583V29.8H34.4531ZM34.4531 36H33.9531V36.5H34.4531V36ZM61.7031 36V36.5H62.2031V36H61.7031ZM61.7031 28.15H62.2031V27.65H61.7031V28.15ZM48.5425 28.5172L55.1425 22.4172L54.4638 21.6828L47.8638 27.7828L48.5425 28.5172ZM55.1417 22.418C57.6687 20.093 59.2036 18.1192 60.1028 16.2685C61.0068 14.4083 61.2531 12.704 61.2531 10.95H60.2531C60.2531 12.596 60.0245 14.1417 59.2034 15.8315C58.3777 17.5308 56.9375 19.407 54.4646 21.682L55.1417 22.418ZM61.2531 10.95C61.2531 7.5423 59.7916 4.7348 57.2776 2.79188C54.7752 0.85786 51.2587 -0.200003 47.1531 -0.200003V0.799997C51.0976 0.799997 54.3811 1.81714 56.6661 3.58312C58.9396 5.3402 60.2531 7.85769 60.2531 10.95H61.2531ZM47.1531 -0.200003C40.1025 -0.200003 34.9773 2.77184 32.2248 7.34204L33.0814 7.85796C35.6289 3.62816 40.4038 0.799997 47.1531 0.799997V-0.200003ZM32.4095 8.03666L39.7595 12.1367L40.2467 11.2633L32.8967 7.16334L32.4095 8.03666ZM40.4277 11.9641C41.7292 9.87232 43.8619 8.8 46.2531 8.8V7.8C43.5444 7.8 41.077 9.02767 39.5786 11.4358L40.4277 11.9641ZM46.2531 8.8C47.6871 8.8 48.6818 9.1237 49.3099 9.64194C49.923 10.1477 50.2531 10.8935 50.2531 11.9H51.2531C51.2531 10.6565 50.8333 9.60229 49.9463 8.87056C49.0745 8.1513 47.8191 7.8 46.2531 7.8V8.8ZM50.2531 11.9C50.2531 12.5677 50.1631 13.25 49.7553 14.0714C49.3414 14.9049 48.587 15.9077 47.2129 17.1836L47.8934 17.9164C49.3193 16.5923 50.1648 15.4951 50.651 14.5161C51.1431 13.525 51.2531 12.6823 51.2531 11.9H50.2531ZM47.2116 17.1848L34.1116 29.4348L34.7946 30.1652L47.8946 17.9152L47.2116 17.1848ZM33.9531 29.8V36H34.9531V29.8H33.9531ZM34.4531 36.5H61.7031V35.5H34.4531V36.5ZM62.2031 36V28.15H61.2031V36H62.2031ZM61.7031 27.65H48.2031V28.65H61.7031V27.65Z" fill="#009F9A"/>
</svg>
