<svg width="61" height="37" viewBox="0 0 61 37" fill="none" xmlns="http://www.w3.org/2000/svg">
<path d="M15.7164 37.2C20.2977 37.2 24.2888 35.4846 27.129 32.2618C29.9647 29.0441 31.6164 24.3669 31.6164 18.5H30.6164C30.6164 24.1831 29.0181 28.6059 26.3788 31.6007C23.744 34.5904 20.0351 36.2 15.7164 36.2V37.2ZM31.6164 18.5C31.6164 12.6331 29.9647 7.95586 27.129 4.73816C24.2888 1.51535 20.2977 -0.200003 15.7164 -0.200003V0.799997C20.0351 0.799997 23.744 2.40964 26.3788 5.39933C29.0181 8.39413 30.6164 12.8169 30.6164 18.5H31.6164ZM15.7164 -0.200003C11.1109 -0.200003 7.10726 1.51477 4.26041 4.73774C1.41808 7.9556 -0.233594 12.6331 -0.233594 18.5H0.766406C0.766406 12.8169 2.36474 8.3944 5.0099 5.39976C7.65055 2.41022 11.3719 0.799997 15.7164 0.799997V-0.200003ZM-0.233594 18.5C-0.233594 24.3669 1.41808 29.0444 4.26041 32.2623C7.10726 35.4852 11.1109 37.2 15.7164 37.2V36.2C11.3719 36.2 7.65055 34.5898 5.0099 31.6002C2.36474 28.6056 0.766406 24.1831 0.766406 18.5H-0.233594ZM15.7164 28.1C14.2894 28.1 13.0773 27.5022 12.1938 26.0468C11.2883 24.5549 10.7164 22.1379 10.7164 18.5H9.71641C9.71641 22.2121 10.2946 24.8451 11.339 26.5657C12.4055 28.3228 13.9434 29.1 15.7164 29.1V28.1ZM10.7164 18.5C10.7164 14.8621 11.2883 12.4451 12.1938 10.9532C13.0773 9.49776 14.2894 8.9 15.7164 8.9V7.9C13.9434 7.9 12.4055 8.67723 11.339 10.4343C10.2946 12.1549 9.71641 14.7879 9.71641 18.5H10.7164ZM15.7164 8.9C17.1155 8.9 18.3159 9.4952 19.1945 10.952C20.0946 12.4445 20.6664 14.8623 20.6664 18.5H21.6664C21.6664 14.7877 21.0882 12.1555 20.0508 10.4355C18.9919 8.6798 17.4673 7.9 15.7164 7.9V8.9ZM20.6664 18.5C20.6664 22.1377 20.0946 24.5555 19.1945 26.048C18.3159 27.5048 17.1155 28.1 15.7164 28.1V29.1C17.4673 29.1 18.9919 28.3202 20.0508 26.5645C21.0882 24.8445 21.6664 22.2123 21.6664 18.5H20.6664ZM51.9566 15L51.5904 14.6596L50.9894 15.3062L51.853 15.4891L51.9566 15ZM59.2066 7.2L59.5729 7.5404L59.7066 7.39648V7.2H59.2066ZM59.2066 0.999998H59.7066V0.499998H59.2066V0.999998ZM33.9066 0.999998V0.499998H33.4066V0.999998H33.9066ZM33.9066 8.65H33.4066V9.15H33.9066V8.65ZM47.7066 8.65L48.0735 8.9897L48.851 8.15H47.7066V8.65ZM41.4566 15.4L41.0898 15.0603L40.9566 15.2041V15.4H41.4566ZM41.4566 21.65H40.9566V22.15H41.4566V21.65ZM35.7066 25.8L35.9874 25.3863L35.5083 25.0612L35.2564 25.5825L35.7066 25.8ZM32.1066 33.25L31.6564 33.0325L31.4613 33.4363L31.8416 33.674L32.1066 33.25ZM52.3229 15.3404L59.5729 7.5404L58.8404 6.85959L51.5904 14.6596L52.3229 15.3404ZM59.7066 7.2V0.999998H58.7066V7.2H59.7066ZM59.2066 0.499998H33.9066V1.5H59.2066V0.499998ZM33.4066 0.999998V8.65H34.4066V0.999998H33.4066ZM33.9066 9.15H47.7066V8.15H33.9066V9.15ZM47.3398 8.31029L41.0898 15.0603L41.8235 15.7397L48.0735 8.9897L47.3398 8.31029ZM40.9566 15.4V21.65H41.9566V15.4H40.9566ZM41.4566 22.15H45.6066V21.15H41.4566V22.15ZM45.6066 22.15C47.465 22.15 48.6837 22.4707 49.4252 22.9757C50.1326 23.4576 50.4566 24.1419 50.4566 25.05H51.4566C51.4566 23.8581 51.0057 22.8424 49.9881 22.1493C49.0046 21.4793 47.5482 21.15 45.6066 21.15V22.15ZM50.4566 25.05C50.4566 26.0408 50.0055 26.8004 49.1688 27.3349C48.3091 27.8839 47.0274 28.2 45.4066 28.2V29.2C47.1359 29.2 48.6291 28.8661 49.707 28.1776C50.8078 27.4746 51.4566 26.4092 51.4566 25.05H50.4566ZM45.4066 28.2C42.1976 28.2 38.6973 27.2251 35.9874 25.3863L35.4259 26.2137C38.316 28.1749 42.0157 29.2 45.4066 29.2V28.2ZM35.2564 25.5825L31.6564 33.0325L32.5568 33.4675L36.1568 26.0175L35.2564 25.5825ZM31.8416 33.674C35.541 35.9861 40.7896 37.2 45.7066 37.2V36.2C40.9237 36.2 35.8722 35.0139 32.3716 32.826L31.8416 33.674ZM45.7066 37.2C51.0701 37.2 55.0096 35.7502 57.616 33.4835C60.2253 31.2143 61.4566 28.1611 61.4566 25.05H60.4566C60.4566 27.8889 59.338 30.6607 56.9598 32.729C54.5787 34.7998 50.8932 36.2 45.7066 36.2V37.2ZM61.4566 25.05C61.4566 22.4422 60.646 20.1216 59.0457 18.2898C57.4478 16.4609 55.0931 15.1534 52.0603 14.5109L51.853 15.4891C54.7202 16.0966 56.8654 17.3141 58.2926 18.9477C59.7172 20.5784 60.4566 22.6578 60.4566 25.05H61.4566Z" fill="#009F9A"/>
</svg>
