<svg width="68" height="37" viewBox="0 0 68 37" fill="none" xmlns="http://www.w3.org/2000/svg">
<path d="M16.0309 37.2C20.6122 37.2 24.6033 35.4846 27.4435 32.2618C30.2792 29.0441 31.9309 24.3669 31.9309 18.5H30.9309C30.9309 24.1831 29.3325 28.6059 26.6932 31.6007C24.0585 34.5904 20.3495 36.2 16.0309 36.2V37.2ZM31.9309 18.5C31.9309 12.6331 30.2792 7.95586 27.4435 4.73816C24.6033 1.51535 20.6122 -0.200003 16.0309 -0.200003V0.799997C20.3495 0.799997 24.0585 2.40964 26.6932 5.39933C29.3325 8.39413 30.9309 12.8169 30.9309 18.5H31.9309ZM16.0309 -0.200003C11.4253 -0.200003 7.42171 1.51477 4.57487 4.73774C1.73253 7.9556 0.0808594 12.6331 0.0808594 18.5H1.08086C1.08086 12.8169 2.67919 8.3944 5.32435 5.39976C7.96501 2.41022 11.6864 0.799997 16.0309 0.799997V-0.200003ZM0.0808594 18.5C0.0808594 24.3669 1.73253 29.0444 4.57487 32.2623C7.42171 35.4852 11.4253 37.2 16.0309 37.2V36.2C11.6864 36.2 7.96501 34.5898 5.32435 31.6002C2.67919 28.6056 1.08086 24.1831 1.08086 18.5H0.0808594ZM16.0309 28.1C14.6039 28.1 13.3917 27.5022 12.5083 26.0468C11.6027 24.5549 11.0309 22.1379 11.0309 18.5H10.0309C10.0309 22.2121 10.609 24.8451 11.6534 26.5657C12.72 28.3228 14.2579 29.1 16.0309 29.1V28.1ZM11.0309 18.5C11.0309 14.8621 11.6027 12.4451 12.5083 10.9532C13.3917 9.49776 14.6039 8.9 16.0309 8.9V7.9C14.2579 7.9 12.72 8.67723 11.6534 10.4343C10.609 12.1549 10.0309 14.7879 10.0309 18.5H11.0309ZM16.0309 8.9C17.43 8.9 18.6304 9.4952 19.509 10.952C20.4091 12.4445 20.9809 14.8623 20.9809 18.5H21.9809C21.9809 14.7877 21.4026 12.1555 20.3653 10.4355C19.3064 8.6798 17.7818 7.9 16.0309 7.9V8.9ZM20.9809 18.5C20.9809 22.1377 20.4091 24.5555 19.509 26.048C18.6304 27.5048 17.43 28.1 16.0309 28.1V29.1C17.7818 29.1 19.3064 28.3202 20.3653 26.5645C21.4026 24.8445 21.9809 22.2123 21.9809 18.5H20.9809ZM67.8094 21.45H68.3094V20.95H67.8094V21.45ZM62.6094 21.45H62.1094V21.95H62.6094V21.45ZM62.6094 15.5H63.1094V15H62.6094V15.5ZM53.2594 15.5V15H52.7594V15.5H53.2594ZM53.2594 21.45V21.95H53.7594V21.45H53.2594ZM46.1594 21.45L45.7491 21.1641L45.2015 21.95H46.1594V21.45ZM60.4094 0.999998L60.8196 1.28585L61.3672 0.499998H60.4094V0.999998ZM50.1594 0.999998V0.499998H49.903L49.7533 0.708237L50.1594 0.999998ZM34.4594 22.85L34.0533 22.5582L33.9594 22.689V22.85H34.4594ZM34.4594 29.3H33.9594V29.8H34.4594V29.3ZM52.9594 29.3H53.4594V28.8H52.9594V29.3ZM52.9594 36H52.4594V36.5H52.9594V36ZM62.6094 36V36.5H63.1094V36H62.6094ZM62.6094 29.3V28.8H62.1094V29.3H62.6094ZM67.8094 29.3V29.8H68.3094V29.3H67.8094ZM67.8094 20.95H62.6094V21.95H67.8094V20.95ZM63.1094 21.45V15.5H62.1094V21.45H63.1094ZM62.6094 15H53.2594V16H62.6094V15ZM52.7594 15.5V21.45H53.7594V15.5H52.7594ZM53.2594 20.95H46.1594V21.95H53.2594V20.95ZM46.5696 21.7359L60.8196 1.28585L59.9991 0.714142L45.7491 21.1641L46.5696 21.7359ZM60.4094 0.499998H50.1594V1.5H60.4094V0.499998ZM49.7533 0.708237L34.0533 22.5582L34.8654 23.1418L50.5654 1.29176L49.7533 0.708237ZM33.9594 22.85V29.3H34.9594V22.85H33.9594ZM34.4594 29.8H52.9594V28.8H34.4594V29.8ZM52.4594 29.3V36H53.4594V29.3H52.4594ZM52.9594 36.5H62.6094V35.5H52.9594V36.5ZM63.1094 36V29.3H62.1094V36H63.1094ZM62.6094 29.8H67.8094V28.8H62.6094V29.8ZM68.3094 29.3V21.45H67.3094V29.3H68.3094Z" fill="#009F9A"/>
</svg>
