<svg width="63" height="37" viewBox="0 0 63 37" fill="none" xmlns="http://www.w3.org/2000/svg">
<path d="M15.8502 37.2C20.4315 37.2 24.4226 35.4846 27.2628 32.2618C30.0985 29.0441 31.7502 24.3669 31.7502 18.5H30.7502C30.7502 24.1831 29.1519 28.6059 26.5126 31.6007C23.8778 34.5904 20.1689 36.2 15.8502 36.2V37.2ZM31.7502 18.5C31.7502 12.6331 30.0985 7.95586 27.2628 4.73816C24.4226 1.51535 20.4315 -0.200003 15.8502 -0.200003V0.799997C20.1689 0.799997 23.8778 2.40964 26.5126 5.39933C29.1519 8.39413 30.7502 12.8169 30.7502 18.5H31.7502ZM15.8502 -0.200003C11.2447 -0.200003 7.24105 1.51477 4.3942 4.73774C1.55187 7.9556 -0.0998046 12.6331 -0.0998046 18.5H0.900195C0.900195 12.8169 2.49853 8.3944 5.14369 5.39976C7.78434 2.41022 11.5057 0.799997 15.8502 0.799997V-0.200003ZM-0.0998046 18.5C-0.0998046 24.3669 1.55187 29.0444 4.3942 32.2623C7.24105 35.4852 11.2447 37.2 15.8502 37.2V36.2C11.5057 36.2 7.78434 34.5898 5.14369 31.6002C2.49853 28.6056 0.900195 24.1831 0.900195 18.5H-0.0998046ZM15.8502 28.1C14.4232 28.1 13.2111 27.5022 12.3276 26.0468C11.422 24.5549 10.8502 22.1379 10.8502 18.5H9.8502C9.8502 22.2121 10.4283 24.8451 11.4728 26.5657C12.5393 28.3228 14.0772 29.1 15.8502 29.1V28.1ZM10.8502 18.5C10.8502 14.8621 11.422 12.4451 12.3276 10.9532C13.2111 9.49776 14.4232 8.9 15.8502 8.9V7.9C14.0772 7.9 12.5393 8.67723 11.4728 10.4343C10.4283 12.1549 9.8502 14.7879 9.8502 18.5H10.8502ZM15.8502 8.9C17.2493 8.9 18.4497 9.4952 19.3283 10.952C20.2284 12.4445 20.8002 14.8623 20.8002 18.5H21.8002C21.8002 14.7877 21.222 12.1555 20.1846 10.4355C19.1257 8.6798 17.6011 7.9 15.8502 7.9V8.9ZM20.8002 18.5C20.8002 22.1377 20.2284 24.5555 19.3283 26.048C18.4497 27.5048 17.2493 28.1 15.8502 28.1V29.1C17.6011 29.1 19.1257 28.3202 20.1846 26.5645C21.222 24.8445 21.8002 22.2123 21.8002 18.5H20.8002ZM45.3787 13.75L44.8806 13.7061L44.8327 14.25H45.3787V13.75ZM45.8287 8.65V8.15H45.3709L45.3306 8.60605L45.8287 8.65ZM59.9287 8.65V9.15H60.4287V8.65H59.9287ZM59.9287 0.999998H60.4287V0.499998H59.9287V0.999998ZM37.6287 0.999998V0.499998H37.1697L37.1305 0.957366L37.6287 0.999998ZM35.8787 21.45L35.3805 21.4074L35.3341 21.95H35.8787V21.45ZM36.8787 25.8L37.1561 25.384L36.6757 25.0637L36.4273 25.5849L36.8787 25.8ZM33.3287 33.25L32.8773 33.0349L32.6867 33.435L33.061 33.6723L33.3287 33.25ZM47.7287 13.25H45.3787V14.25H47.7287V13.25ZM45.8768 13.7939L46.3268 8.69394L45.3306 8.60605L44.8806 13.7061L45.8768 13.7939ZM45.8287 9.15H59.9287V8.15H45.8287V9.15ZM60.4287 8.65V0.999998H59.4287V8.65H60.4287ZM59.9287 0.499998H37.6287V1.5H59.9287V0.499998ZM37.1305 0.957366L35.3805 21.4074L36.3769 21.4926L38.1269 1.04263L37.1305 0.957366ZM35.8787 21.95H45.3787V20.95H35.8787V21.95ZM45.3787 21.95C48.0324 21.95 49.6175 22.3014 50.5277 22.8475C50.9711 23.1135 51.2498 23.4231 51.4225 23.7641C51.5974 24.1095 51.6787 24.5177 51.6787 25H52.6787C52.6787 24.4073 52.5788 23.8342 52.3146 23.3124C52.0483 22.7863 51.6301 22.3427 51.0422 21.99C49.8899 21.2986 48.075 20.95 45.3787 20.95V21.95ZM51.6787 25C51.6787 25.9878 51.2177 26.7618 50.3644 27.3107C49.491 27.8726 48.1962 28.2 46.5787 28.2V29.2C48.3113 29.2 49.8164 28.8524 50.9055 28.1518C52.0147 27.4382 52.6787 26.3622 52.6787 25H51.6787ZM46.5787 28.2C43.3227 28.2 39.9201 27.2267 37.1561 25.384L36.6014 26.216C39.5373 28.1733 43.1347 29.2 46.5787 29.2V28.2ZM36.4273 25.5849L32.8773 33.0349L33.7801 33.4651L37.3301 26.0151L36.4273 25.5849ZM33.061 33.6723C36.7123 35.9865 41.9626 37.2 46.8787 37.2V36.2C42.0948 36.2 37.0451 35.0135 33.5964 32.8277L33.061 33.6723ZM46.8787 37.2C52.242 37.2 56.1836 35.7503 58.7913 33.4432C61.4022 31.1333 62.6287 28.0044 62.6287 24.75H61.6287C61.6287 27.7456 60.5052 30.5917 58.1287 32.6943C55.7488 34.7997 52.0655 36.2 46.8787 36.2V37.2ZM62.6287 24.75C62.6287 21.5366 61.575 18.6346 59.1352 16.5452C56.7066 14.4655 52.9732 13.25 47.7287 13.25V14.25C52.8342 14.25 56.3008 15.4345 58.4847 17.3048C60.6574 19.1654 61.6287 21.7634 61.6287 24.75H62.6287Z" fill="#009F9A"/>
</svg>
