<svg width="62" height="57" viewBox="0 0 62 57" fill="none" xmlns="http://www.w3.org/2000/svg">
<path opacity="0.2" d="M25.6164 0.554688C12.65 10.692 0.862488 22.008 0.862488 40.6324C0.862488 51.7127 6.99202 56.192 14.0645 56.192C19.9583 56.192 25.6164 50.7697 25.6164 44.1686C25.6164 37.5676 20.6656 32.8526 17.1293 32.8526C13.5931 32.8526 12.1785 30.2593 12.1785 26.7231C12.1785 21.3008 14.0645 15.8785 28.4454 3.38369L25.6164 0.554688ZM58.6215 0.554688C45.4194 10.692 33.6319 22.008 33.6319 40.6324C33.6319 51.7127 39.7614 56.192 46.834 56.192C52.7277 56.192 58.6215 50.7697 58.6215 44.1686C58.6215 37.5676 53.435 32.8526 49.8987 32.8526C46.3625 32.8526 44.948 30.2593 44.948 26.7231C44.948 21.3008 46.834 15.8785 61.2148 3.38369L58.6215 0.554688Z" fill="#009F9A"/>
</svg>
