<svg width="103" height="34" viewBox="0 0 103 34" fill="none" xmlns="http://www.w3.org/2000/svg">
<path d="M97.3255 12.2153H102.002C101.411 7.66349 98.0863 5.27094 93.4658 5.27094C88.7893 5.27094 85.6622 7.75107 85.6622 12.011C85.6622 16.8545 89.6908 17.934 91.8319 18.3718C94.5928 18.9262 97.2974 18.9846 97.2974 21.4354C97.2974 23.0985 95.9451 23.9155 94.0294 23.9155C91.6629 23.9155 90.0854 22.69 89.6908 20.4727H85.0706C85.3522 25.2578 88.7049 27.8254 93.6351 27.8254C98.199 27.8254 101.946 25.6663 101.946 20.9978C101.946 15.9791 97.6355 15.0747 94.621 14.6078C92.5643 14.2869 90.3106 13.9951 90.3106 11.7484C90.3106 10.1728 91.4657 9.20998 93.4096 9.20998C95.6634 9.20998 97.0156 10.523 97.3255 12.2153Z" fill="#403F41"/>
<path d="M82.5069 6.00043H78.0837V27.1542H82.5069V6.00043Z" fill="#403F41"/>
<path d="M64.7301 19.7723H70.5055C69.6039 22.0483 67.5755 23.1277 65.2372 23.1277C61.1241 23.1277 59.2084 19.8307 59.2084 16.5628C59.2084 13.2656 61.0113 9.91027 65.2091 9.91027C67.7728 9.91027 69.6884 11.1357 70.4209 13.324L75.182 13.3241C74.3651 8.39311 70.1956 5.56287 65.2655 5.56287C59.1802 5.56287 54.6162 9.85188 54.6162 16.6212C54.6162 23.4779 59.5745 27.5336 65.2372 27.5336C70.8154 27.5336 75.182 23.7697 75.182 17.8758V16.1543H64.7301V19.7723Z" fill="#403F41"/>
<path d="M44.5021 5.56281C39.4311 5.56281 35.6841 8.85981 35.7123 14.3452H40.2763C40.2199 11.9527 41.6848 9.76436 44.2767 9.76436C46.5306 9.76436 47.8546 11.3983 47.8546 13.2656C47.8546 15.133 46.5306 16.1834 44.0795 17.3214C40.727 18.8678 38.3324 19.8598 35.8813 20.7352V27.1543H52.9539V22.8359H41.2334C41.2334 22.8359 41.2724 22.8233 41.2916 22.8173C43.2851 22.1917 44.7828 21.512 46.5588 20.706C50.362 18.9554 52.5313 16.767 52.5313 13.0323C52.5313 8.4513 49.2633 5.56281 44.5021 5.56281Z" fill="#403F41"/>
<path d="M23.7109 19.714C17.9637 19.7432 17.034 23.332 16.7242 26.3665L16.5833 27.7086H15.4282L15.2873 26.3665C14.9775 23.332 14.0196 19.7432 8.46959 19.714C7.53992 17.7298 7.14551 16.125 7.14551 14.316C7.14551 9.79358 10.7234 5.56268 16.0198 5.56268C21.3162 5.56268 24.8378 9.76424 24.8378 14.3454C24.8378 16.125 24.6688 17.7298 23.7109 19.714ZM15.9635 0.0772705C7.2301 0.0772705 0.0742188 7.48848 0.0742188 16.5626C0.0742188 25.6662 7.2301 33.0773 15.9635 33.0773C24.7814 33.0773 31.9091 25.6662 31.9091 16.5626C31.9091 7.4885 24.7814 0.0772705 15.9635 0.0772705Z" fill="#29B24A"/>
</svg>
