<svg width="80" height="12" viewBox="0 0 80 12" fill="none" xmlns="http://www.w3.org/2000/svg">
<path fill-rule="evenodd" clip-rule="evenodd" d="M6.25277 9.66197L2.99277 11.653C2.91149 11.7023 2.81738 11.7264 2.72238 11.7222C2.62738 11.718 2.53577 11.6857 2.45917 11.6294C2.38257 11.573 2.32443 11.4952 2.29214 11.4057C2.25984 11.3163 2.25484 11.2193 2.27777 11.127L3.22277 7.36297L0.482769 5.22997C0.406293 5.17084 0.349455 5.08999 0.319696 4.99801C0.289937 4.90604 0.288644 4.80722 0.315985 4.71449C0.343327 4.62177 0.39803 4.53946 0.472932 4.47834C0.547834 4.41723 0.639444 4.38015 0.735769 4.37197L4.32177 4.07697L5.81777 0.589974C5.85478 0.503488 5.91639 0.429785 5.99494 0.378023C6.0735 0.326261 6.16553 0.298722 6.2596 0.298828C6.35367 0.298935 6.44564 0.326682 6.52407 0.378622C6.60251 0.430562 6.66395 0.504404 6.70077 0.590974L8.18377 4.07697L11.7938 4.37297C11.89 4.38102 11.9816 4.41791 12.0565 4.47882C12.1315 4.53974 12.1863 4.62184 12.2139 4.71441C12.2414 4.80698 12.2404 4.90571 12.2109 4.99769C12.1815 5.08967 12.125 5.17062 12.0488 5.22997L9.29677 7.36297L10.2398 11.129C10.263 11.2213 10.2582 11.3185 10.226 11.4081C10.1938 11.4977 10.1357 11.5758 10.059 11.6323C9.98236 11.6888 9.89063 11.7212 9.7955 11.7254C9.70037 11.7296 9.60613 11.7055 9.52477 11.656L6.25277 9.66097V9.66197Z" fill="#FFCC00"/>
<path fill-rule="evenodd" clip-rule="evenodd" d="M23.1903 9.66197L19.9303 11.653C19.849 11.7023 19.7549 11.7264 19.6599 11.7222C19.5649 11.718 19.4733 11.6857 19.3967 11.6294C19.3201 11.573 19.2619 11.4952 19.2296 11.4057C19.1973 11.3163 19.1923 11.2193 19.2153 11.127L20.1603 7.36297L17.4203 5.22997C17.3438 5.17084 17.287 5.08999 17.2572 4.99801C17.2274 4.90604 17.2261 4.80722 17.2535 4.71449C17.2808 4.62177 17.3355 4.53946 17.4104 4.47834C17.4853 4.41723 17.5769 4.38015 17.6733 4.37197L21.2593 4.07697L22.7553 0.589974C22.7923 0.503488 22.8539 0.429785 22.9324 0.378023C23.011 0.326261 23.103 0.298722 23.1971 0.298828C23.2912 0.298935 23.3831 0.326682 23.4616 0.378622C23.54 0.430562 23.6015 0.504404 23.6383 0.590974L25.1213 4.07697L28.7313 4.37297C28.8275 4.38102 28.9191 4.41791 28.994 4.47882C29.069 4.53974 29.1238 4.62184 29.1514 4.71441C29.1789 4.80698 29.1779 4.90571 29.1484 4.99769C29.119 5.08967 29.0625 5.17062 28.9863 5.22997L26.2343 7.36297L27.1773 11.129C27.2005 11.2213 27.1957 11.3185 27.1635 11.4081C27.1313 11.4977 27.0732 11.5758 26.9965 11.6323C26.9199 11.6888 26.8281 11.7212 26.733 11.7254C26.6379 11.7296 26.5436 11.7055 26.4623 11.656L23.1903 9.66097V9.66197Z" fill="#FFCC00"/>
<path fill-rule="evenodd" clip-rule="evenodd" d="M40.1275 9.66197L36.8675 11.653C36.7862 11.7023 36.6921 11.7264 36.5971 11.7222C36.5021 11.718 36.4105 11.6857 36.3339 11.6294C36.2573 11.573 36.1992 11.4952 36.1669 11.4057C36.1346 11.3163 36.1296 11.2193 36.1525 11.127L37.0975 7.36297L34.3575 5.22997C34.281 5.17084 34.2242 5.08999 34.1945 4.99801C34.1647 4.90604 34.1634 4.80722 34.1907 4.71449C34.2181 4.62177 34.2728 4.53946 34.3477 4.47834C34.4226 4.41723 34.5142 4.38015 34.6105 4.37197L38.1965 4.07697L39.6925 0.589974C39.7295 0.503488 39.7911 0.429785 39.8697 0.378023C39.9483 0.326261 40.0403 0.298722 40.1344 0.298828C40.2284 0.298935 40.3204 0.326682 40.3988 0.378622C40.4773 0.430562 40.5387 0.504404 40.5755 0.590974L42.0585 4.07697L45.6685 4.37297C45.7648 4.38102 45.8563 4.41791 45.9313 4.47882C46.0062 4.53974 46.0611 4.62184 46.0886 4.71441C46.1162 4.80698 46.1151 4.90571 46.0857 4.99769C46.0562 5.08967 45.9997 5.17062 45.9235 5.22997L43.1715 7.36297L44.1145 11.129C44.1377 11.2213 44.1329 11.3185 44.1007 11.4081C44.0685 11.4977 44.0104 11.5758 43.9338 11.6323C43.8571 11.6888 43.7654 11.7212 43.6703 11.7254C43.5751 11.7296 43.4809 11.7055 43.3995 11.656L40.1275 9.66097V9.66197Z" fill="#FFCC00"/>
<path fill-rule="evenodd" clip-rule="evenodd" d="M57.065 9.66197L53.805 11.653C53.7237 11.7023 53.6296 11.7264 53.5346 11.7222C53.4396 11.718 53.348 11.6857 53.2714 11.6294C53.1948 11.573 53.1367 11.4952 53.1044 11.4057C53.0721 11.3163 53.0671 11.2193 53.09 11.127L54.035 7.36297L51.295 5.22997C51.2185 5.17084 51.1617 5.08999 51.132 4.99801C51.1022 4.90604 51.1009 4.80722 51.1282 4.71449C51.1556 4.62177 51.2103 4.53946 51.2852 4.47834C51.3601 4.41723 51.4517 4.38015 51.548 4.37197L55.134 4.07697L56.63 0.589974C56.667 0.503488 56.7286 0.429785 56.8072 0.378023C56.8858 0.326261 56.9778 0.298722 57.0719 0.298828C57.1659 0.298935 57.2579 0.326682 57.3363 0.378622C57.4148 0.430562 57.4762 0.504404 57.513 0.590974L58.996 4.07697L62.606 4.37297C62.7023 4.38102 62.7938 4.41791 62.8688 4.47882C62.9437 4.53974 62.9986 4.62184 63.0261 4.71441C63.0537 4.80698 63.0526 4.90571 63.0232 4.99769C62.9937 5.08967 62.9372 5.17062 62.861 5.22997L60.109 7.36297L61.052 11.129C61.0752 11.2213 61.0704 11.3185 61.0382 11.4081C61.006 11.4977 60.9479 11.5758 60.8713 11.6323C60.7946 11.6888 60.7029 11.7212 60.6078 11.7254C60.5126 11.7296 60.4184 11.7055 60.337 11.656L57.065 9.66097V9.66197Z" fill="#FFCC00"/>
<path fill-rule="evenodd" clip-rule="evenodd" d="M74.0023 9.66197L70.7423 11.653C70.661 11.7023 70.5669 11.7264 70.4719 11.7222C70.3769 11.718 70.2853 11.6857 70.2087 11.6294C70.1321 11.573 70.0739 11.4952 70.0416 11.4057C70.0094 11.3163 70.0044 11.2193 70.0273 11.127L70.9723 7.36297L68.2323 5.22997C68.1558 5.17084 68.099 5.08999 68.0692 4.99801C68.0394 4.90604 68.0382 4.80722 68.0655 4.71449C68.0928 4.62177 68.1475 4.53946 68.2224 4.47834C68.2973 4.41723 68.389 4.38015 68.4853 4.37197L72.0713 4.07697L73.5673 0.589974C73.6043 0.503488 73.6659 0.429785 73.7445 0.378023C73.823 0.326261 73.915 0.298722 74.0091 0.298828C74.1032 0.298935 74.1952 0.326682 74.2736 0.378622C74.352 0.430562 74.4135 0.504404 74.4503 0.590974L75.9333 4.07697L79.5433 4.37297C79.6395 4.38102 79.7311 4.41791 79.8061 4.47882C79.881 4.53974 79.9358 4.62184 79.9634 4.71441C79.9909 4.80698 79.9899 4.90571 79.9604 4.99769C79.931 5.08967 79.8745 5.17062 79.7983 5.22997L77.0463 7.36297L77.9893 11.129C78.0125 11.2213 78.0077 11.3185 77.9755 11.4081C77.9433 11.4977 77.8852 11.5758 77.8085 11.6323C77.7319 11.6888 77.6401 11.7212 77.545 11.7254C77.4499 11.7296 77.3556 11.7055 77.2743 11.656L74.0023 9.66097V9.66197Z" fill="#FFCC00"/>
</svg>
