<svg width="40" height="41" viewBox="0 0 40 41" fill="none" xmlns="http://www.w3.org/2000/svg">
<path d="M20 40.0123C31.0457 40.0123 40 31.058 40 20.0123C40 8.96663 31.0457 0.0123291 20 0.0123291C8.9543 0.0123291 0 8.96663 0 20.0123C0 31.058 8.9543 40.0123 20 40.0123Z" fill="#2787F5"/>
<path d="M22.884 10.6178H17.116C11.852 10.6178 10.6055 11.8643 10.6055 17.1283V22.8963C10.6055 28.1604 11.852 29.4069 17.116 29.4069H22.884C28.148 29.4069 29.3945 28.1604 29.3945 22.8963V17.1283C29.3945 11.8643 28.1348 10.6178 22.884 10.6178ZM25.7746 24.0233H24.4074C23.8902 24.0233 23.7313 23.6123 22.8031 22.6709C21.9941 21.8897 21.6363 21.7826 21.4359 21.7826C21.1574 21.7826 21.0777 21.8608 21.0777 22.2467V23.4799C21.0777 23.8115 20.9715 24.0104 20.0965 24.0104C18.6512 24.0104 17.0469 23.1354 15.9195 21.5041C14.2223 19.1174 13.7582 17.3272 13.7582 16.9561C13.7582 16.7573 13.8363 16.5717 14.2223 16.5717H15.5895C15.9344 16.5717 16.0668 16.7307 16.1992 17.1022C16.8754 19.0514 18.0027 20.7619 18.4648 20.7619C18.6371 20.7619 18.7168 20.6838 18.7168 20.2448V18.2291C18.6637 17.301 18.173 17.2213 18.173 16.8901C18.173 16.7311 18.3055 16.5717 18.518 16.5717H20.6664C20.9582 16.5717 21.0641 16.7307 21.0641 17.0756V19.7936C21.0641 20.0854 21.1965 20.1912 21.2762 20.1912C21.4484 20.1912 21.5945 20.085 21.9125 19.767C22.8938 18.6666 23.5965 16.9694 23.5965 16.9694C23.6895 16.7705 23.8484 16.585 24.1934 16.585H25.5605C25.9715 16.585 26.0645 16.7971 25.9715 17.0889C25.7992 17.8846 24.1285 20.2448 24.1285 20.2448C23.9828 20.4834 23.9297 20.5897 24.1285 20.8545C24.2742 21.0533 24.7535 21.4643 25.0699 21.8358C25.6535 22.4998 26.1043 23.0557 26.2234 23.4401C26.3582 23.8244 26.159 24.0233 25.7746 24.0233Z" fill="white"/>
</svg>
