<svg width="117" height="34" viewBox="0 0 117 34" fill="none" xmlns="http://www.w3.org/2000/svg">
<path d="M110.971 29.2852C113.254 29.2852 114.871 28.8729 116.077 27.9849V23.9571C114.84 24.8134 113.349 25.3526 111.256 25.3526C107.736 25.3526 106.277 22.6251 106.277 18.3119C106.277 13.7766 108.053 11.4614 111.288 11.4614C113.191 11.4614 115.062 12.1275 116.045 12.7618V8.57539C114.998 8.00452 113.191 7.59222 110.717 7.59222C104.406 7.59222 101.139 12.1275 101.139 18.4704C101.171 25.416 104.374 29.2852 110.971 29.2852ZM80.1119 27.4458V23.418C78.5896 24.4646 75.989 25.3843 73.6104 25.3843C69.9949 25.3843 68.6311 23.6717 68.4091 20.183H80.3339V17.5824C80.3339 10.3197 77.1307 7.59222 72.2149 7.59222C66.1891 7.59222 63.3348 12.1909 63.3348 18.5022C63.3348 25.7649 66.9185 29.2852 73.1981 29.2852C76.3379 29.2852 78.6531 28.4289 80.1119 27.4458ZM34.8548 7.9728V16.2187H28.2581V7.9728H23.3105V28.8729H28.2581V20.1513H34.8548V28.8729H39.8023V7.9728H34.8548ZM62.0979 24.9403H59.9095V7.9728H45.511V9.74884C45.511 14.8549 45.1938 21.4516 43.4495 24.9403H41.8638V33.6302H46.4307V28.8729H57.4992V33.6302H62.0662V24.9403H62.0979ZM95.8742 28.8729H101.488L93.5591 17.6141L100.536 7.9728H95.5571L88.5798 17.6141V7.9728H83.6323V28.8729H88.5798V18.5973L95.8742 28.8729ZM72.0881 11.4614C74.5301 11.4614 75.2913 13.4912 75.2913 16.1235V16.5358H68.4091C68.536 13.2058 69.7412 11.4614 72.0881 11.4614ZM54.962 24.9403H47.9847C49.3485 21.8005 49.7291 16.0918 49.7291 12.4763V11.842H54.962V24.9403Z" fill="black"/>
<path d="M19.1875 28.8729H14.1448V3.91326H11.8931C7.77015 3.91326 5.61354 5.97473 5.61354 9.05108C5.61354 12.5397 7.10414 14.1572 10.1805 16.2186L12.7177 17.9312L5.42325 28.8729H0L6.56499 19.1047C2.79091 16.4089 0.666013 13.7766 0.666013 9.33651C0.666013 3.7864 4.53523 0.0123291 11.8614 0.0123291H19.1558V28.8729H19.1875Z" fill="#FC3F1D"/>
</svg>
