<svg width="40" height="41" viewBox="0 0 40 41" fill="none" xmlns="http://www.w3.org/2000/svg">
<path d="M20 40.0123C31.0457 40.0123 40 31.058 40 20.0123C40 8.96663 31.0457 0.0123291 20 0.0123291C8.9543 0.0123291 0 8.96663 0 20.0123C0 31.058 8.9543 40.0123 20 40.0123Z" fill="#FF0000"/>
<path d="M31.1387 12.9702C30.2666 11.9335 28.6564 11.5106 25.5813 11.5106H14.4186C11.2731 11.5106 9.63564 11.9608 8.76678 13.0645C7.91968 14.1407 7.91968 15.7264 7.91968 17.9209V22.1038C7.91968 26.3554 8.92476 28.514 14.4186 28.514H25.5813C28.2481 28.514 29.7258 28.1408 30.6817 27.2259C31.6621 26.2877 32.0804 24.7558 32.0804 22.1038V17.9209C32.0804 15.6066 32.0149 14.0116 31.1387 12.9702ZM23.4309 20.5898L18.362 23.239C18.2487 23.2983 18.1248 23.3276 18.001 23.3276C17.8609 23.3276 17.7211 23.2899 17.5972 23.2149C17.364 23.0736 17.2216 22.8209 17.2216 22.5483V17.2669C17.2216 16.9947 17.3636 16.7422 17.5964 16.6008C17.8292 16.4594 18.1187 16.4498 18.3602 16.5753L23.4292 19.2074C23.687 19.3413 23.849 19.6075 23.8494 19.898C23.8497 20.1887 23.6885 20.4553 23.4309 20.5898Z" fill="white"/>
</svg>
